<?xml version="1.0" encoding="utf-8"?>
<!-- Generator: Adobe Illustrator 27.7.0, SVG Export Plug-In . SVG Version: 6.00 Build 0)  -->
<svg version="1.1" id="Layer_1" xmlns="http://www.w3.org/2000/svg" xmlns:xlink="http://www.w3.org/1999/xlink" x="0px" y="0px"
	 viewBox="0 0 34.64 35.86" style="enable-background:new 0 0 34.64 35.86;" xml:space="preserve">
<style type="text/css">
	.st0{fill:#0B5940;}
</style>
<g>
	<g>
		<polygon class="st0" points="17.32,18 15.6,19.33 15.6,19.34 		"/>
		<polygon class="st0" points="17.32,19.58 12.83,23.07 12.82,23.08 17.32,19.59 21.82,23.08 21.81,23.07 		"/>
		<polygon class="st0" points="21.81,23.07 21.82,23.07 17.32,11.37 12.82,23.07 12.83,23.07 17.32,11.38 		"/>
		<path class="st0" d="M21.81,23.07l-4.49-11.69l-4.49,11.69l4.49-3.49L21.81,23.07z M15.59,19.34l1.73-4.48l1.72,4.48L17.32,18
			L15.59,19.34l0.01-0.01L15.59,19.34z"/>
		<polygon class="st0" points="15.59,19.34 15.6,19.33 17.32,14.86 		"/>
	</g>
	<path class="st0" d="M34.01,17.91h-1.24c-0.22-5.4-3.2-10.09-7.58-12.69v1.46c3.67,2.45,6.13,6.55,6.33,11.22h-1.18
		c-0.35,0-0.62,0.28-0.62,0.62s0.28,0.62,0.62,0.62h1.18c-0.32,7.35-6.23,13.26-13.58,13.58v-1.18c0-0.35-0.28-0.62-0.62-0.62
		s-0.62,0.28-0.62,0.62v1.18c-7.36-0.3-13.26-6.21-13.59-13.56h1.18c0.35,0,0.62-0.28,0.62-0.62s-0.28-0.62-0.62-0.62H3.11
		c0.2-4.68,2.66-8.78,6.33-11.22V5.23c-4.38,2.6-7.36,7.29-7.58,12.69H0.62C0.28,17.91,0,18.19,0,18.54s0.28,0.62,0.62,0.62h1.24
		c0.32,8.04,6.79,14.51,14.83,14.83v1.24c0,0.35,0.28,0.62,0.62,0.62s0.62-0.28,0.62-0.62v-1.24c8.04-0.32,14.51-6.79,14.83-14.83
		H34c0.35,0,0.62-0.28,0.62-0.62S34.36,17.91,34.01,17.91z"/>
	<path class="st0" d="M15.99,8.6c1.13,0,1.78-0.61,2-1.44c0.06-0.21,0.09-0.43,0.09-0.66V5.55h-1.41v0.99
		c0,0.27-0.04,0.48-0.15,0.62c-0.11,0.14-0.28,0.21-0.53,0.21c-0.27,0-0.45-0.07-0.57-0.21c-0.13-0.15-0.18-0.38-0.18-0.7V4.47V3.21
		V2.3c0-0.61,0.18-0.91,0.75-0.91c0.36,0,0.68,0.3,0.68,0.99v0.64h1.41v-0.6c0-1.23-0.68-2.25-2.09-2.25c-1.48,0-2.16,0.94-2.16,2.1
		v1.19v1.29V6.5c0,0.23,0.04,0.45,0.09,0.66C14.15,8,14.81,8.6,15.99,8.6z"/>
	<path class="st0" d="M21.23,8.6c1.13,0,1.78-0.61,2-1.44c0.06-0.21,0.09-0.43,0.09-0.66V5.64V5.55h-0.19h-1.22v0.99
		c0,0.27-0.04,0.48-0.15,0.62c-0.11,0.14-0.28,0.21-0.53,0.21c-0.27,0-0.45-0.07-0.57-0.21c-0.13-0.15-0.18-0.38-0.18-0.7v-1.8V3.38
		V2.3c0-0.61,0.18-0.91,0.75-0.91c0.36,0,0.68,0.3,0.68,0.99v0.64h1.41v-0.6c0-1.23-0.68-2.25-2.09-2.25c-1.48,0-2.16,0.94-2.16,2.1
		v0.89v1.26V6.5c0,0.23,0.04,0.45,0.09,0.66C19.38,8,20.04,8.6,21.23,8.6z"/>
	<polygon class="st0" points="12.73,7.16 12.73,5.07 12.73,3.75 12.73,0.28 11.32,0.28 11.32,4.26 11.32,5.64 11.32,7.16 
		11.32,8.49 12.73,8.49 	"/>
</g>
</svg>
