<?xml version="1.0" encoding="UTF-8"?>
<!-- Generator: Adobe Illustrator 27.1.1, SVG Export Plug-In . SVG Version: 6.00 Build 0)  -->
<svg version="1.1" xmlns="http://www.w3.org/2000/svg" xmlns:xlink="http://www.w3.org/1999/xlink" x="0px" y="0px" viewBox="0 0 429.9 80" style="enable-background:new 0 0 429.9 80;" xml:space="preserve">
<style type="text/css">
	.st0{fill:#FFFFFF;}
</style>
<g id="white_x5F_BG">
</g>
<g id="Layer_1">
	<g id="Group_310_7_" transform="translate(-436.324 3997.481)">
		<g id="Group_304_19_">
			<g>
				<path id="Path_642_16_" class="st0" d="M615.4-3984.3h-7.2l-1.7,4.4h-2l6.1-15.8h2.3l6.1,15.8h-2L615.4-3984.3z M614.7-3986.1      l-2.1-5.6l-0.7-2.2h0l-0.7,2.1l-2.2,5.7L614.7-3986.1z"/>
				<path id="Path_643_16_" class="st0" d="M623.7-3983.1c0,1.2,0.3,1.6,1.3,1.6c0.6,0,1.2-0.1,1.7-0.3l-0.3,1.8      c-0.6,0.2-1.2,0.3-1.8,0.3c-1.9,0-2.9-1-2.9-3.2v-14.5h1.9L623.7-3983.1z"/>
				<path id="Path_644_16_" class="st0" d="M631-3983.1c0,1.2,0.3,1.6,1.3,1.6c0.6,0,1.2-0.1,1.7-0.3l-0.3,1.8      c-0.6,0.2-1.2,0.3-1.8,0.3c-1.9,0-2.9-1-2.9-3.2v-14.5h1.9L631-3983.1z"/>
				<path id="Path_645_16_" class="st0" d="M636.1-3995.6c0-0.7,0.5-1.4,1.3-1.4c0.1,0,0.1,0,0.2,0c0.7,0,1.4,0.5,1.4,1.3      c0,0.1,0,0.1,0,0.2c0,0.7-0.5,1.4-1.3,1.4c-0.1,0-0.1,0-0.2,0c-0.7,0-1.4-0.5-1.4-1.3C636.1-3995.5,636.1-3995.5,636.1-3995.6z       M638.5-3979.9h-1.9v-12h1.9V-3979.9z"/>
				<path id="Path_646_16_" class="st0" d="M653.7-3981.4l-0.1,1.5c-0.5,0.2-0.9,0.2-1.4,0.2c-1,0.1-2-0.6-2.1-1.6      c0-0.1,0-0.1,0-0.2c-0.9,1.2-2.4,1.8-3.8,1.8c-2.2,0-4.1-1.1-4.1-3.2c0-1.8,1.6-3.2,4.7-3.7l3.2-0.5v-0.7c0.1-1.4-1-2.6-2.4-2.6      c-0.1,0-0.3,0-0.4,0c-1.5-0.1-2.9,0.9-3.4,2.3l-1.4-1c0.8-1.9,2.8-3.1,4.8-2.9c2.7,0,4.7,1.3,4.7,4.1v5.9c0,0.6,0.2,0.9,0.9,0.9      C653-3981.3,653.4-3981.3,653.7-3981.4z M649.9-3983.9v-1.6l-2.7,0.5c-2.1,0.4-3.2,1.1-3.2,2.2c0,1,0.8,1.5,2.2,1.5      C648.1-3981.3,649.9-3982.3,649.9-3983.9L649.9-3983.9z"/>
				<path id="Path_647_16_" class="st0" d="M666.9-3987.6v7.7H665v-7c0-2.7-1.3-3.5-2.9-3.5c-1.7,0-3.7,1.1-3.7,4.2v6.4h-1.9v-12      h1.7l0.1,1.9c0.8-1.4,2.4-2.2,4-2.1C664.8-3992.1,666.9-3990.6,666.9-3987.6z"/>
				<path id="Path_648_16_" class="st0" d="M681.2-3988.9l-1.8,0.9c-0.4-1.5-1.7-2.4-3.2-2.4c-2.4,0-3.8,1.7-3.8,4.5      s1.4,4.5,3.8,4.5c1.6,0.2,3-0.9,3.3-2.5l1.8,0.6c-0.7,2.2-2.8,3.6-5.1,3.5c-3.6,0-5.8-2.3-5.8-6.2s2.2-6.2,5.8-6.2      C678.4-3992.2,680.4-3990.9,681.2-3988.9z"/>
				<path id="Path_649_16_" class="st0" d="M694.9-3985.2h-9c0.2,2.4,1.7,3.8,3.9,3.8c1.7,0,2.9-0.6,3.4-1.8l1.6,0.8      c-0.9,1.6-2.4,2.6-5,2.6c-3.6,0-5.8-2.3-5.8-6.2s2-6.2,5.6-6.2c3.5,0,5.4,2.5,5.4,5.6C695-3986,695-3985.6,694.9-3985.2z       M685.9-3986.9h7.2c-0.3-2.2-1.5-3.6-3.5-3.6C687.5-3990.4,686.2-3989.1,685.9-3986.9L685.9-3986.9z"/>
				<path id="Path_650_16_" class="st0" d="M709.2-3991.9h4v1.7h-4v10.3h-1.9v-10.3h-2.4v-1.7h2.4v-2c0-2.1,1.3-3.6,3.9-3.6      c0.7,0,1.4,0.2,2,0.6l-0.5,1.6c-0.4-0.2-0.9-0.4-1.4-0.4c-1.4,0-2.2,0.6-2.2,2.1L709.2-3991.9z"/>
				<path id="Path_651_16_" class="st0" d="M726.2-3985.9c0,3.9-2.2,6.2-5.8,6.2s-5.8-2.3-5.8-6.2s2.2-6.2,5.8-6.2      S726.2-3989.8,726.2-3985.9z M716.6-3985.9c0,2.8,1.5,4.6,3.9,4.6s3.9-1.7,3.9-4.6s-1.5-4.6-3.9-4.6S716.6-3988.7,716.6-3985.9z      "/>
				<path id="Path_652_16_" class="st0" d="M736.9-3991.9l-0.4,1.9c-0.5-0.2-1-0.3-1.5-0.3c-1.4,0-3.2,1.3-3.2,3.9v6.5h-1.9v-12h1.6      l0.3,2c0.7-1.5,2.2-2.3,3.8-2.2C736-3992.1,736.5-3992,736.9-3991.9z"/>
				<path id="Path_653_16_" class="st0" d="M618.9-3948.8h-2.4l-6.6-10.6l-1.7-3.1h0l0.1,2.5v11.1h-1.8v-15.8h2.4l6.6,10.5l1.7,3.2      h0l-0.1-2.5v-11.1h1.8L618.9-3948.8z"/>
				<path id="Path_654_16_" class="st0" d="M634.3-3950.3l-0.1,1.5c-0.5,0.2-0.9,0.2-1.4,0.2c-1,0.2-2-0.6-2.1-1.6      c0-0.1,0-0.1,0-0.2c-0.9,1.2-2.4,1.8-3.9,1.8c-2.2,0-4.1-1.1-4.1-3.2c0-1.8,1.6-3.2,4.7-3.7l3.2-0.5v-0.7c0.1-1.4-1-2.6-2.4-2.6      c-0.1,0-0.3,0-0.4,0c-1.5-0.1-2.9,0.9-3.4,2.3l-1.4-1c0.8-1.9,2.8-3.1,4.8-2.9c2.7,0,4.7,1.3,4.7,4.1v5.9c0,0.6,0.2,0.9,0.9,0.9      C633.7-3950.2,634-3950.2,634.3-3950.3z M630.5-3952.8v-1.6l-2.7,0.5c-2.1,0.4-3.2,1.1-3.2,2.2c0,1,0.8,1.5,2.2,1.5      C628.7-3950.2,630.5-3951.2,630.5-3952.8L630.5-3952.8z"/>
				<path id="Path_655_16_" class="st0" d="M643.9-3949.6c-0.9,0.7-2,1.1-3.1,1.1c-1.6,0.2-3.1-1-3.3-2.6c0-0.2,0-0.4,0-0.6v-7.3      h-2.4v-1.6h2.4v-2.9l1.9-0.5v3.4h4.4v1.6h-4.4v7c-0.1,0.9,0.6,1.7,1.5,1.8c0.1,0,0.2,0,0.3,0c0.8,0,1.5-0.3,2-0.9L643.9-3949.6z      "/>
				<path id="Path_656_16_" class="st0" d="M646.1-3964.5c0-0.7,0.5-1.4,1.3-1.4c0.1,0,0.1,0,0.2,0c0.7,0,1.4,0.5,1.4,1.3      c0,0.1,0,0.1,0,0.2c0,0.7-0.5,1.4-1.3,1.4c-0.1,0-0.1,0-0.2,0c-0.7,0-1.4-0.5-1.4-1.3C646.1-3964.4,646.1-3964.4,646.1-3964.5z       M648.5-3948.8h-1.9v-12h1.9V-3948.8z"/>
				<path id="Path_657_16_" class="st0" d="M663.8-3954.8c0,3.9-2.2,6.2-5.8,6.2s-5.8-2.3-5.8-6.2s2.2-6.2,5.8-6.2      S663.8-3958.7,663.8-3954.8z M654.1-3954.8c0,2.8,1.5,4.6,3.9,4.6s3.9-1.7,3.9-4.6s-1.5-4.6-3.9-4.6S654.1-3957.6,654.1-3954.8z      "/>
				<path id="Path_658_16_" class="st0" d="M678-3956.5v7.7h-1.9v-7c0-2.7-1.3-3.5-2.9-3.5c-1.7,0-3.7,1.1-3.7,4.2v6.4h-1.9v-12h1.7      l0.1,1.9c0.8-1.4,2.4-2.2,4-2.1C675.9-3961,678-3959.5,678-3956.5z"/>
				<path id="Path_659_16_" class="st0" d="M693.1-3950.3l-0.1,1.5c-0.5,0.2-0.9,0.2-1.4,0.2c-1,0.1-2-0.6-2.1-1.6      c0-0.1,0-0.1,0-0.2c-0.9,1.2-2.4,1.8-3.8,1.8c-2.2,0-4.1-1.1-4.1-3.2c0-1.8,1.6-3.2,4.7-3.7l3.2-0.5v-0.7c0.1-1.4-1-2.6-2.4-2.6      c-0.1,0-0.3,0-0.4,0c-1.5-0.1-2.9,0.9-3.4,2.3l-1.4-1c0.8-1.9,2.8-3.1,4.8-2.9c2.7,0,4.7,1.3,4.7,4.1v5.9c0,0.6,0.2,0.9,0.9,0.9      C692.4-3950.2,692.8-3950.2,693.1-3950.3z M689.3-3952.8v-1.6l-2.7,0.5c-2.1,0.4-3.2,1.1-3.2,2.2c0,1,0.8,1.5,2.2,1.5      C687.5-3950.2,689.3-3951.2,689.3-3952.8L689.3-3952.8z"/>
				<path id="Path_660_16_" class="st0" d="M697.7-3952c0,1.2,0.3,1.6,1.3,1.6c0.6,0,1.2-0.1,1.7-0.3l-0.3,1.8      c-0.6,0.2-1.2,0.3-1.8,0.3c-1.9,0-2.9-1-2.9-3.2v-14.5h1.9L697.7-3952z"/>
				<path id="Path_661_16_" class="st0" d="M723.3-3950l-0.5,1.4c-1.2,0-2-0.3-3.6-1.8c-1.3,1.2-3,1.9-4.7,1.8c-3,0-5-1.7-5-4.1      c0-1.9,1-3.4,3.8-4.9c-1.3-1.7-1.8-2.6-1.8-3.8c0-1.9,1.5-3.5,3.5-3.5c0.1,0,0.2,0,0.2,0c1.9,0,3.7,0.9,3.7,3.3      c0,1.6-0.5,2.9-3.1,4.4c0.4,0.6,1,1.2,1.6,2c0.8,0.9,1.4,1.7,1.9,2.3c0.8-1.4,1.1-2.9,1-4.5l1.5,0.2c0.1,1.9-0.4,3.9-1.5,5.5      C721.5-3950.3,722.2-3950,723.3-3950z M718.1-3951.5c-0.6-0.7-1.3-1.6-2.2-2.6c-0.7-0.8-1.3-1.6-1.8-2.2c-2.5,1.4-3,2.3-3,3.5      c0.1,1.6,1.5,2.8,3.2,2.7c0,0,0,0,0,0C715.8-3950.1,717.1-3950.6,718.1-3951.5z M713.2-3961.4c0,0.8,0.2,1.3,1.6,3.1      c2.1-1.2,2.3-2.2,2.3-3.2c0-1.1-0.7-1.7-2-1.7c-1-0.1-1.8,0.6-1.9,1.6C713.2-3961.5,713.2-3961.4,713.2-3961.4L713.2-3961.4z"/>
				<path id="Path_662_16_" class="st0" d="M740.3-3948.6c-4.5,0-7.3-3.1-7.3-8.1s2.9-8.1,7.3-8.1c3.1,0,5.1,1.3,6.1,3.7l-1.9,0.9      c-0.6-1.8-2.2-2.9-4.1-2.8c-3.2,0-5.4,2.3-5.4,6.3c0,4,2,6.3,5.3,6.3c2,0.1,3.9-1.2,4.4-3.2l1.9,0.7      C745.7-3950.2,743.1-3948.5,740.3-3948.6z"/>
				<path id="Path_663_16_" class="st0" d="M760.8-3954.8c0,3.9-2.2,6.2-5.8,6.2s-5.8-2.3-5.8-6.2s2.2-6.2,5.8-6.2      S760.8-3958.7,760.8-3954.8z M751.1-3954.8c0,2.8,1.5,4.6,3.9,4.6s3.9-1.7,3.9-4.6s-1.5-4.6-3.9-4.6S751.1-3957.6,751.1-3954.8z      "/>
				<path id="Path_664_16_" class="st0" d="M783-3956.5v7.7H781v-7.5c0-2.2-1.2-3.1-2.8-3.1c-1.9,0-3.5,1.4-3.5,4v6.6h-1.9v-7.5      c0-2.2-1.2-3.1-2.8-3.1s-3.5,1.2-3.5,4.1v6.4h-1.9v-12h1.7l0.1,1.9c0.8-1.3,2.3-2.1,3.8-2.1c1.7-0.1,3.3,0.8,4.1,2.3      c0.8-1.5,2.4-2.4,4.2-2.3c2.4-0.2,4.4,1.6,4.6,4C783-3956.8,783-3956.6,783-3956.5z"/>
				<path id="Path_665_16_" class="st0" d="M805.8-3956.5v7.7h-1.9v-7.5c0-2.2-1.2-3.1-2.8-3.1c-1.9,0-3.5,1.4-3.5,4v6.6h-1.9v-7.5      c0-2.2-1.2-3.1-2.8-3.1s-3.5,1.2-3.5,4.1v6.4h-1.9v-12h1.7l0.1,1.9c0.8-1.3,2.3-2.1,3.8-2.1c1.7-0.1,3.3,0.8,4.1,2.3      c0.8-1.5,2.4-2.4,4.2-2.3c2.4-0.2,4.4,1.6,4.6,4C805.8-3956.8,805.8-3956.6,805.8-3956.5z"/>
				<path id="Path_666_16_" class="st0" d="M820.4-3960.8v12h-1.7l-0.1-1.8c-0.9,1.4-2.6,2.2-4.3,2.1c-2.4,0-4.4-1.2-4.4-4.4v-7.8      h1.9v7.3c0,2.5,1.1,3.2,2.8,3.2c2,0,3.8-1.2,3.8-4v-6.5L820.4-3960.8z"/>
				<path id="Path_667_16_" class="st0" d="M835.4-3956.5v7.7h-1.9v-7c0-2.7-1.3-3.5-2.9-3.5c-1.7,0-3.7,1.1-3.7,4.2v6.4h-1.9v-12      h1.7l0.1,1.9c0.8-1.4,2.4-2.2,4-2.1C833.3-3961,835.4-3959.5,835.4-3956.5z"/>
				<path id="Path_668_16_" class="st0" d="M839.2-3964.5c0-0.7,0.5-1.4,1.3-1.4c0.1,0,0.1,0,0.2,0c0.7,0,1.4,0.5,1.4,1.3      c0,0.1,0,0.1,0,0.2c0,0.7-0.5,1.4-1.3,1.4c-0.1,0-0.1,0-0.2,0c-0.7,0-1.4-0.5-1.4-1.3C839.2-3964.4,839.2-3964.4,839.2-3964.5z       M841.6-3948.8h-1.9v-12h1.9V-3948.8z"/>
				<path id="Path_669_16_" class="st0" d="M853.4-3949.6c-0.9,0.7-2,1.1-3.1,1.1c-1.6,0.2-3.1-1-3.3-2.6c0-0.2,0-0.4,0-0.6v-7.3      h-2.4v-1.6h2.4v-2.9l1.9-0.5v3.4h4.4v1.6h-4.4v7c-0.1,0.9,0.6,1.7,1.5,1.8c0.1,0,0.2,0,0.3,0c0.8,0,1.5-0.3,2-0.9L853.4-3949.6z      "/>
				<path id="Path_670_16_" class="st0" d="M860.6-3946.8c-0.9,2.3-2,3.1-3.8,3.1c-1,0.1-2-0.3-2.6-1l0.7-1.6c0.4,0.6,1.2,1,1.9,1      c0.8,0,1.6-0.4,2.2-1.9l0.6-1.6l-5-11.9h2.2l3,7.8l0.7,2.1l0.9-2.4l2.8-7.6h2.1L860.6-3946.8z"/>
				<path id="Path_671_16_" class="st0" d="M612.2-3924.3h-3.8v6.6h-1.9v-15.8h6c3.2,0,5.3,1.8,5.3,4.6c0.1,2.1-1.4,4-3.5,4.4      l4.4,6.8h-2.3L612.2-3924.3z M608.4-3926.1h4c2.2,0,3.3-0.9,3.3-2.8s-1.1-2.8-3.3-2.8h-4V-3926.1z"/>
				<path id="Path_672_16_" class="st0" d="M631.8-3923h-9c0.2,2.4,1.7,3.8,3.9,3.8c1.7,0,2.9-0.6,3.4-1.8l1.6,0.8      c-0.9,1.6-2.4,2.6-5,2.6c-3.6,0-5.8-2.3-5.8-6.2s2-6.2,5.6-6.2c3.5,0,5.4,2.5,5.4,5.6C631.9-3923.9,631.8-3923.4,631.8-3923z       M622.8-3924.7h7.2c-0.3-2.2-1.5-3.6-3.5-3.6C624.4-3928.2,623.1-3926.9,622.8-3924.7L622.8-3924.7z"/>
				<path id="Path_673_16_" class="st0" d="M634.4-3920.2l1.6-1.1c0.6,1.5,2.1,2.1,3.8,2.1c2,0,2.9-0.8,2.9-1.8      c0-0.9-0.7-1.4-3.1-1.8c-3.4-0.6-4.6-1.6-4.6-3.6c0-1.9,1.8-3.6,4.7-3.6c2.6,0,4.1,0.9,4.7,2.9l-1.6,1c-0.4-1.4-1.7-2.3-3.1-2.2      c-1.6,0-2.8,0.9-2.8,1.7c0,1,0.8,1.6,3.2,2c3.3,0.6,4.5,1.6,4.5,3.5c0,2.1-1.9,3.5-5,3.5      C637.4-3917.5,635.3-3918.3,634.4-3920.2z"/>
				<path id="Path_674_16_" class="st0" d="M647.6-3933.4c0-0.7,0.5-1.4,1.3-1.4c0.1,0,0.1,0,0.2,0c0.7,0,1.4,0.5,1.4,1.3      c0,0.1,0,0.1,0,0.2c0,0.7-0.5,1.4-1.3,1.4c-0.1,0-0.1,0-0.2,0c-0.7,0-1.4-0.5-1.4-1.3C647.6-3933.3,647.6-3933.3,647.6-3933.4z       M650-3917.7h-1.9v-12h1.9V-3917.7z"/>
				<path id="Path_675_16_" class="st0" d="M656.3-3920.9c0,1.2,0.3,1.6,1.3,1.6c0.6,0,1.2-0.1,1.7-0.3l-0.3,1.8      c-0.6,0.2-1.2,0.3-1.8,0.3c-1.9,0-2.9-1-2.9-3.2v-14.5h1.9L656.3-3920.9z"/>
				<path id="Path_676_16_" class="st0" d="M661.3-3933.4c0-0.7,0.5-1.4,1.3-1.4c0.1,0,0.1,0,0.2,0c0.7,0,1.4,0.5,1.4,1.3      c0,0.1,0,0.1,0,0.2c0,0.7-0.5,1.4-1.3,1.4c-0.1,0-0.1,0-0.2,0c-0.7,0-1.4-0.5-1.4-1.3C661.3-3933.3,661.3-3933.3,661.3-3933.4z       M663.7-3917.7h-1.9v-12h1.9L663.7-3917.7z"/>
				<path id="Path_677_16_" class="st0" d="M678.3-3923h-9c0.2,2.4,1.7,3.8,3.9,3.8c1.7,0,2.9-0.6,3.4-1.8l1.6,0.8      c-0.9,1.6-2.4,2.6-5,2.6c-3.6,0-5.8-2.3-5.8-6.2s2-6.2,5.6-6.2c3.5,0,5.4,2.5,5.4,5.6C678.4-3923.9,678.4-3923.4,678.3-3923z       M669.3-3924.7h7.2c-0.3-2.2-1.5-3.6-3.5-3.6C670.9-3928.2,669.6-3926.9,669.3-3924.7L669.3-3924.7z"/>
				<path id="Path_678_16_" class="st0" d="M692.5-3925.4v7.7h-1.9v-7c0-2.7-1.3-3.5-2.9-3.5c-1.7,0-3.7,1.1-3.7,4.2v6.4h-1.9v-12      h1.7l0.1,1.9c0.8-1.4,2.4-2.2,4-2.1C690.4-3929.9,692.5-3928.5,692.5-3925.4z"/>
				<path id="Path_679_16_" class="st0" d="M706.9-3926.7l-1.8,0.9c-0.4-1.5-1.7-2.4-3.2-2.4c-2.4,0-3.8,1.7-3.8,4.5      s1.4,4.5,3.8,4.5c1.6,0.2,3-0.9,3.3-2.5l1.8,0.6c-0.7,2.2-2.8,3.6-5.1,3.5c-3.6,0-5.8-2.3-5.8-6.2s2.2-6.2,5.8-6.2      C704.1-3930,706.1-3928.7,706.9-3926.7z"/>
				<path id="Path_680_16_" class="st0" d="M720.5-3923h-9c0.2,2.4,1.7,3.8,3.9,3.8c1.7,0,2.9-0.6,3.4-1.8l1.6,0.8      c-0.9,1.6-2.4,2.6-5,2.6c-3.6,0-5.8-2.3-5.8-6.2s2-6.2,5.6-6.2c3.5,0,5.4,2.5,5.4,5.6C720.6-3923.9,720.6-3923.4,720.5-3923z       M711.5-3924.7h7.2c-0.3-2.2-1.5-3.6-3.5-3.6C713.1-3928.2,711.8-3926.9,711.5-3924.7L711.5-3924.7z"/>
			</g>
		</g>
		<g id="Group_309_11_">
			<path id="Path_681_11_" class="st0" d="M509.5-3937.9c0-0.2,0-0.5,0-0.8s0-0.5,0-0.8c0,0.2,0,0.5,0,0.8     S509.5-3938.1,509.5-3937.9z"/>
			<g id="Group_306_11_">
				<g id="Group_305_11_">
					<path id="Path_682_19_" class="st0" d="M496.6-3959.8h-11.4c-6.1,0-11.9,2.6-15.9,7.2c-0.4,0.4-0.7,0.9-1.1,1.3       c-0.3,0.4-0.6,0.9-0.9,1.3c-2.2,3.4-3.3,7.3-3.3,11.3c0,4,1.1,8,3.3,11.3h9.8c-0.6-0.4-1.2-0.9-1.8-1.5       c-2.6-2.6-4.1-6.2-4.1-9.9c0-3.7,1.5-7.3,4.1-9.9c0.5-0.5,1.1-1,1.8-1.5c0.7-0.5,1.4-0.9,2.2-1.3c1.8-0.9,3.8-1.3,5.9-1.3h26.3       c2.2-3,5.1-5.5,8.4-7.2H496.6z"/>
					<path id="Path_683_19_" class="st0" d="M549-3950h-9.8c0.6,0.4,1.2,0.9,1.8,1.5c2.6,2.6,4.1,6.2,4.1,9.9c0,3.7-1.5,7.3-4.1,9.9       c-0.5,0.5-1.1,1-1.8,1.5c-0.7,0.5-1.4,0.9-2.2,1.3c-1.8,0.9-3.8,1.3-5.9,1.3H505c-2.2,3-5.1,5.5-8.4,7.2h34.6       c6.1,0,11.9-2.6,15.9-7.2c0.4-0.4,0.7-0.9,1.1-1.3c0.3-0.4,0.6-0.9,0.9-1.3c2.2-3.4,3.3-7.3,3.3-11.3       C552.3-3942.7,551.2-3946.6,549-3950z"/>
				</g>
				<path id="Path_684_19_" class="st0" d="M508.1-3990.6c5,0,9.1,4.1,9.1,9.1c0,5-4.1,9.1-9.1,9.1c-5,0-9.1-4.1-9.1-9.1      C499-3986.5,503.1-3990.6,508.1-3990.6 M508.1-3997.5c-8.8,0-16,7.2-16,16c0,8.8,7.2,16,16,16c8.8,0,16-7.2,16-16      C524.2-3990.3,517-3997.5,508.1-3997.5L508.1-3997.5z"/>
			</g>
			<g id="Group_307_11_">
				<path id="Path_685_19_" class="st0" d="M558.9-3959.8h-28.3c-6.1,0-11.9,2.6-15.9,7.2c-0.4,0.4-0.7,0.9-1.1,1.3      c-0.3,0.4-0.6,0.9-0.9,1.3c-2,3.2-3.2,6.8-3.3,10.6c0,0.2,0,0.5,0,0.8s0,0.5,0,0.8c0.1,3.8,1.3,7.4,3.3,10.6h9.8      c-0.6-0.4-1.2-0.9-1.8-1.5c-2.6-2.6-4.1-6.2-4.1-9.9c0-3.7,1.5-7.3,4.1-9.9c0.5-0.5,1.1-1,1.8-1.5c0.7-0.5,1.4-0.9,2.2-1.3      c1.8-0.9,3.8-1.3,5.9-1.3h28.3c3.7,0,7.3,1.5,9.9,4.1c2.6,2.6,4.1,6.2,4.1,9.9c0,3.7-1.5,7.3-4.1,9.9c-2.6,2.6-6.2,4.1-9.9,4.1      h-8.5c-2.2,3-5.1,5.5-8.4,7.2h17c11.7,0,21.2-9.5,21.2-21.2C580.1-3950.3,570.6-3959.8,558.9-3959.8z"/>
				<path id="Path_686_19_" class="st0" d="M544.8-3984.8c3.5,0,6.3,2.8,6.3,6.3c0,3.5-2.8,6.3-6.3,6.3c-3.5,0-6.3-2.8-6.3-6.3      C538.6-3982,541.4-3984.8,544.8-3984.8 M544.8-3991.7c-7.3,0-13.1,5.9-13.1,13.1c0,7.3,5.9,13.1,13.1,13.1      c7.3,0,13.1-5.9,13.1-13.1C558-3985.8,552.1-3991.7,544.8-3991.7C544.8-3991.7,544.8-3991.7,544.8-3991.7z"/>
			</g>
			<g id="Group_308_11_">
				<path id="Path_687_19_" class="st0" d="M506.9-3939.4c-0.1-3.8-1.3-7.4-3.3-10.6h-9.8c0.6,0.4,1.2,0.9,1.8,1.5      c2.6,2.6,4.1,6.2,4.1,9.9c0,3.7-1.5,7.3-4.1,9.9c-0.5,0.5-1.1,1-1.8,1.5c-0.7,0.5-1.4,0.9-2.2,1.3c-1.8,0.9-3.8,1.3-5.9,1.3      h-28.3c-3.7,0-7.3-1.5-9.9-4.1c-2.6-2.6-4.1-6.2-4.1-9.9c0-3.7,1.5-7.3,4.1-9.9c2.6-2.6,6.2-4.1,9.9-4.1h8.4      c2.2-3,5.1-5.5,8.4-7.2h-16.8c-11.7,0-21.2,9.5-21.2,21.2c0,11.7,9.5,21.2,21.2,21.2h28.3c6.1,0,11.9-2.6,15.9-7.2      c0.4-0.4,0.7-0.9,1.1-1.3c0.3-0.4,0.6-0.9,0.9-1.3c2-3.2,3.2-6.8,3.3-10.6c0-0.2,0-0.5,0-0.8S506.9-3939.1,506.9-3939.4z"/>
				<path id="Path_688_19_" class="st0" d="M471.6-3987.9c4.3,0,7.8,3.5,7.8,7.8l0,0c0,4.3-3.5,7.8-7.8,7.8c-4.3,0-7.8-3.5-7.8-7.8      C463.8-3984.4,467.3-3987.9,471.6-3987.9L471.6-3987.9 M471.6-3994.8c-8.1,0-14.7,6.6-14.7,14.7l0,0c0,8.1,6.6,14.7,14.7,14.7      c8.1,0,14.7-6.6,14.7-14.7l0,0C486.3-3988.2,479.7-3994.8,471.6-3994.8z"/>
			</g>
		</g>
	</g>
	<g>
		<g>
			<g>
				<g>
					<path class="st0" d="M288.9,61c1.8,0,3.4,1.4,3.4,3.4c0,2-1.6,3.4-3.4,3.4c-1.9,0-3.4-1.4-3.4-3.4C285.4,62.5,287,61,288.9,61z        M288.9,61.6c-1.6,0-2.8,1.2-2.8,2.8c0,1.7,1.2,2.8,2.8,2.8c1.6,0,2.8-1.2,2.8-2.8C291.6,62.8,290.4,61.6,288.9,61.6z        M288.2,66.4h-0.6v-3.9h1.5c0.9,0,1.4,0.3,1.4,1.1c0,0.7-0.4,1-1,1.1l1.1,1.7h-0.7l-1-1.7h-0.7V66.4z M288.2,64.2h0.7       c0.7,0,1-0.2,1-0.6c0-0.4-0.2-0.6-0.9-0.6h-0.8V64.2z"/>
				</g>
			</g>
		</g>
	</g>
</g>
<g id="Layer_3">
	<g>
		<g>
			<g>
				<path class="st0" d="M144.2,73.1c1.8,0,3.4,1.4,3.4,3.4c0,2-1.6,3.4-3.4,3.4c-1.9,0-3.4-1.4-3.4-3.4      C140.7,74.6,142.3,73.1,144.2,73.1z M144.2,73.7c-1.6,0-2.8,1.2-2.8,2.8c0,1.7,1.2,2.8,2.8,2.8c1.6,0,2.8-1.2,2.8-2.8      C147,74.9,145.7,73.7,144.2,73.7z M143.5,78.5h-0.6v-3.9h1.5c0.9,0,1.4,0.3,1.4,1.1c0,0.7-0.4,1-1,1.1l1.1,1.7h-0.7l-1-1.7h-0.7      V78.5z M143.5,76.3h0.7c0.7,0,1-0.2,1-0.6c0-0.4-0.2-0.6-0.9-0.6h-0.8V76.3z"/>
			</g>
		</g>
	</g>
</g>
</svg>