<?xml version="1.0" encoding="utf-8"?>
<!-- Generator: Adobe Illustrator 27.1.1, SVG Export Plug-In . SVG Version: 6.00 Build 0)  -->
<svg version="1.1" id="Layer_1" xmlns="http://www.w3.org/2000/svg" xmlns:xlink="http://www.w3.org/1999/xlink" x="0px" y="0px"
	 viewBox="0 0 168.9 108.6" style="enable-background:new 0 0 168.9 108.6;" xml:space="preserve">
<style type="text/css">
	.st0{fill:#FFFFFF;}
</style>
<g>
	<g>
		<g>
			<path class="st0" d="M89.2,56.2c0,0-2.2-11.1,13.2-19.5s35.1-10.5,44.2-21.6c0,0,0,10-16.3,17.6S99.3,41.8,89.2,56.2z"/>
			<path class="st0" d="M91.1,55.2c0,0,5-8.6,23.3-14.4c18.4-5.7,24.2-7.6,27.6-12.8c0,0,0.6,9-19.1,13.8
				C103.3,46.6,91.1,55.2,91.1,55.2z"/>
			<path class="st0" d="M94.8,54.7c0,0,4-4.5,20.9-8.8s20.6-5.2,24.5-9.5c0,0-1.2,5.8-20.4,11.4C113.6,49.2,99,51.6,94.8,54.7z"/>
			<path class="st0" d="M79.8,56.2c0,0,2.2-11.1-13.2-19.5S31.5,26.3,22.4,15.1c0,0,0,10,16.3,17.6C55,40.4,69.7,41.8,79.8,56.2z"/>
			<path class="st0" d="M77.9,55.2c0,0-5-8.6-23.3-14.4C36.2,35.1,30.4,33.2,27,28c0,0-0.6,9,19.1,13.8
				C65.7,46.6,77.9,55.2,77.9,55.2z"/>
			<path class="st0" d="M74.2,54.7c0,0-4-4.5-20.9-8.8s-20.6-5.2-24.5-9.5c0,0,1.2,5.8,20.4,11.4C55.4,49.2,70,51.6,74.2,54.7z"/>
			<path class="st0" d="M68.1,24.4L68.1,24.4l0.8,0.8l-4.2,4.2c-0.4,0.4-0.2,0.9,0.2,1.2c1.3,0.6,2.7,1.3,4,2
				C81.1,39.2,84,47.7,84.5,52.7l0.1-0.1c0.6-5.1,3.5-13.4,15.6-20c1.2-0.7,2.5-1.3,3.7-1.9c0.4-0.2,0.6-0.8,0.2-1.2l-7.9-7.9
				c-0.2-1.2-0.4-2.1-0.7-2.6c-0.1-0.2-0.3-0.4-0.2-0.6c0.6-1.6,1.1-3.3,1.9-4.8c0.6-1.1,1.9-1.3,3.2-1.3c1.3,0,2.6,0,3.8,0.1
				c1.5,0.2,1.7,0.6,1.8,2.1c0,0.3-0.1,0.7,0,1s0.3,0.6,0.5,1c0.3-0.3,0.7-0.5,0.8-0.8c1.4-3.6,0.9-7.9-2.9-10.3
				c-1.5-0.9-3.1-1.6-4.9-1.7c-0.5,0-1.1-0.2-1.5-0.5C92.8-0.9,87.4-0.7,81.7,2c-1.6,0.7-3.2,1.5-4.7,2.4c-1.3,0.7-2.8,1.3-2.4,3.3
				c0,0.2-0.4,0.5-0.7,0.6c-0.5,0.3-1.1,0.6-1.6,0.9c-0.4,0.3-0.8,0.5-0.3,1.1c0.6,0.8,0.1,1.3-0.4,1.9c-0.9,1-1.6,2.1-2.4,3.2
				c-0.4,0.6-0.4,1.1,0.5,1.3c-0.3,0.5-0.6,1-0.9,1.5C68.6,18.7,68.3,21.5,68.1,24.4L68.1,24.4L68.1,24.4L68.1,24.4z"/>
		</g>
	</g>
</g>
<g>
	<path class="st0" d="M18.2,79.1H15c-0.4,0-0.7-0.1-0.9-0.3c-0.2-0.2-0.4-0.4-0.5-0.6l-1.1-3.1H5.7l-1.1,3.1
		c-0.1,0.2-0.2,0.4-0.5,0.6c-0.2,0.2-0.5,0.3-0.9,0.3H0l6.9-17.9h4.2L18.2,79.1z M6.7,72.3h4.9L10,67.4c-0.1-0.3-0.2-0.7-0.4-1.1
		c-0.1-0.4-0.3-0.9-0.4-1.4c-0.1,0.5-0.3,1-0.4,1.4c-0.1,0.4-0.3,0.8-0.4,1.1L6.7,72.3z"/>
	<path class="st0" d="M19.6,79.1V66.4H22c0.2,0,0.4,0.1,0.6,0.2c0.2,0.1,0.3,0.3,0.3,0.5l0.2,0.7c0.2-0.2,0.4-0.4,0.7-0.6
		s0.5-0.3,0.7-0.5c0.3-0.1,0.6-0.2,0.9-0.3s0.6-0.1,1-0.1c0.8,0,1.4,0.2,1.9,0.6s0.9,0.9,1.1,1.6c0.2-0.4,0.5-0.7,0.8-1
		s0.6-0.5,1-0.7s0.7-0.3,1.1-0.4c0.4-0.1,0.8-0.1,1.2-0.1c0.7,0,1.4,0.1,1.9,0.3c0.6,0.2,1,0.5,1.4,0.9s0.7,0.9,0.9,1.5
		s0.3,1.3,0.3,2v8.1h-3.8V71c0-1.3-0.6-2-1.7-2c-0.5,0-0.9,0.2-1.3,0.5c-0.3,0.3-0.5,0.8-0.5,1.5v8.1h-3.8V71c0-0.7-0.1-1.2-0.4-1.5
		c-0.3-0.3-0.7-0.4-1.3-0.4c-0.3,0-0.7,0.1-1,0.2c-0.3,0.2-0.6,0.4-0.9,0.6v9.2L19.6,79.1L19.6,79.1z"/>
	<path class="st0" d="M45.7,66.2c0.8,0,1.6,0.1,2.3,0.4c0.7,0.3,1.3,0.6,1.8,1.1s0.9,1.1,1.2,1.8c0.3,0.7,0.4,1.5,0.4,2.5
		c0,0.3,0,0.5,0,0.7s-0.1,0.3-0.1,0.4c-0.1,0.1-0.2,0.2-0.3,0.2c-0.1,0-0.3,0.1-0.4,0.1h-7.3c0.1,1.1,0.4,1.8,1,2.3
		c0.5,0.5,1.2,0.7,2,0.7c0.4,0,0.8-0.1,1.1-0.2c0.3-0.1,0.6-0.2,0.9-0.4c0.2-0.1,0.5-0.2,0.7-0.4s0.4-0.2,0.7-0.2
		c0.3,0,0.5,0.1,0.7,0.3l1.1,1.4c-0.4,0.4-0.8,0.8-1.3,1.1c-0.5,0.3-0.9,0.5-1.4,0.7s-1,0.3-1.4,0.3s-0.9,0.1-1.4,0.1
		c-0.9,0-1.7-0.1-2.5-0.4s-1.5-0.7-2-1.3c-0.6-0.6-1-1.3-1.4-2.1c-0.3-0.9-0.5-1.8-0.5-3c0-0.9,0.1-1.7,0.4-2.4
		c0.3-0.8,0.7-1.4,1.3-2c0.5-0.6,1.2-1,2-1.4C43.8,66.4,44.7,66.2,45.7,66.2z M45.8,68.9c-0.7,0-1.3,0.2-1.7,0.6
		c-0.4,0.4-0.7,1-0.8,1.8H48c0-0.3,0-0.6-0.1-0.9s-0.2-0.5-0.4-0.8c-0.2-0.2-0.4-0.4-0.7-0.5C46.5,68.9,46.2,68.9,45.8,68.9z"/>
	<path class="st0" d="M53.1,79.1V66.4h2.3c0.2,0,0.3,0,0.5,0c0.1,0,0.2,0.1,0.3,0.2c0.1,0.1,0.2,0.2,0.2,0.3c0,0.1,0.1,0.3,0.1,0.4
		l0.2,1.2c0.5-0.7,1-1.3,1.6-1.7c0.6-0.4,1.2-0.6,1.9-0.6c0.6,0,1,0.1,1.4,0.4l-0.5,2.8c0,0.2-0.1,0.3-0.2,0.4s-0.2,0.1-0.4,0.1
		c-0.1,0-0.3,0-0.5-0.1c-0.2,0-0.5,0-0.7,0c-1,0-1.8,0.5-2.4,1.6v7.8L53.1,79.1L53.1,79.1z"/>
	<path class="st0" d="M67.1,62.9c0,0.3-0.1,0.6-0.2,0.9s-0.3,0.5-0.5,0.7s-0.5,0.4-0.7,0.5c-0.3,0.1-0.6,0.2-0.9,0.2
		s-0.6-0.1-0.9-0.2s-0.5-0.3-0.7-0.5s-0.4-0.4-0.5-0.7c-0.1-0.3-0.2-0.5-0.2-0.9c0-0.3,0.1-0.6,0.2-0.9s0.3-0.5,0.5-0.7
		s0.4-0.4,0.7-0.5c0.3-0.1,0.6-0.2,0.9-0.2s0.6,0.1,0.9,0.2s0.5,0.3,0.7,0.5s0.4,0.4,0.5,0.7S67.1,62.6,67.1,62.9z M66.7,66.4v12.7
		h-3.8V66.4H66.7z"/>
	<path class="st0" d="M78.9,69.4c-0.1,0.1-0.2,0.2-0.3,0.3s-0.3,0.1-0.5,0.1s-0.4,0-0.5-0.1c-0.2-0.1-0.3-0.2-0.5-0.3
		c-0.2-0.1-0.4-0.2-0.7-0.3C76.1,69,75.8,69,75.5,69c-0.5,0-0.9,0.1-1.2,0.3c-0.3,0.2-0.6,0.4-0.8,0.7c-0.2,0.3-0.4,0.7-0.5,1.2
		s-0.2,1-0.2,1.6c0,1.2,0.2,2.2,0.7,2.8c0.5,0.7,1.1,1,1.9,1c0.4,0,0.8-0.1,1-0.2c0.3-0.1,0.5-0.2,0.7-0.4c0.2-0.1,0.3-0.3,0.5-0.4
		s0.3-0.2,0.6-0.2c0.3,0,0.5,0.1,0.7,0.3l1.1,1.4c-0.4,0.4-0.8,0.8-1.2,1.1c-0.4,0.3-0.9,0.5-1.3,0.7c-0.5,0.2-0.9,0.3-1.4,0.3
		c-0.5,0.1-0.9,0.1-1.3,0.1c-0.8,0-1.5-0.1-2.2-0.4s-1.3-0.7-1.9-1.3c-0.5-0.6-1-1.2-1.3-2.1c-0.3-0.8-0.5-1.7-0.5-2.8
		c0-0.9,0.1-1.8,0.4-2.6c0.3-0.8,0.7-1.5,1.2-2.1s1.2-1,2-1.4c0.8-0.3,1.7-0.5,2.7-0.5s1.9,0.2,2.6,0.5c0.8,0.3,1.4,0.8,2,1.4
		L78.9,69.4z"/>
	<path class="st0" d="M90.4,79.1c-0.4,0-0.6,0-0.8-0.1c-0.2-0.1-0.3-0.3-0.5-0.6l-0.3-0.7c-0.3,0.3-0.6,0.5-0.9,0.7
		s-0.6,0.4-0.9,0.5s-0.6,0.2-1,0.3c-0.4,0.1-0.8,0.1-1.2,0.1c-0.6,0-1.1-0.1-1.6-0.2c-0.5-0.2-0.9-0.4-1.2-0.7
		c-0.3-0.3-0.6-0.7-0.8-1.1c-0.2-0.4-0.3-0.9-0.3-1.5c0-0.5,0.1-0.9,0.3-1.4c0.2-0.5,0.6-0.9,1.2-1.3s1.3-0.7,2.3-1s2.2-0.4,3.6-0.4
		v-0.5c0-0.8-0.2-1.3-0.5-1.6s-0.7-0.5-1.3-0.5c-0.4,0-0.8,0-1.1,0.1c-0.3,0.1-0.5,0.2-0.8,0.3c-0.2,0.1-0.4,0.2-0.7,0.3
		c-0.2,0.1-0.5,0.1-0.8,0.1s-0.5-0.1-0.7-0.2s-0.3-0.3-0.4-0.5L81.3,68c0.8-0.7,1.6-1.2,2.6-1.5c0.9-0.3,1.9-0.5,3-0.5
		c0.8,0,1.5,0.1,2.1,0.4s1.1,0.6,1.6,1c0.4,0.4,0.8,1,1,1.6s0.3,1.3,0.3,2v7.9h-1.5V79.1z M86.1,76.8c0.5,0,0.9-0.1,1.3-0.3
		c0.4-0.2,0.7-0.4,1.1-0.8V74c-0.8,0-1.4,0-1.9,0.1s-0.9,0.2-1.2,0.4c-0.3,0.1-0.5,0.3-0.6,0.5s-0.2,0.4-0.2,0.6
		c0,0.4,0.1,0.7,0.4,0.9C85.3,76.7,85.6,76.8,86.1,76.8z"/>
	<path class="st0" d="M94.9,79.1V66.4h2.4c0.2,0,0.4,0.1,0.6,0.2s0.3,0.3,0.3,0.5l0.2,0.7c0.2-0.2,0.5-0.4,0.8-0.6s0.5-0.4,0.8-0.5
		s0.6-0.2,1-0.3c0.3-0.1,0.7-0.1,1.1-0.1c0.7,0,1.3,0.1,1.8,0.4c0.5,0.2,1,0.6,1.4,1s0.6,0.9,0.8,1.5s0.3,1.2,0.3,1.9v8.1h-3.8v-8.1
		c0-0.6-0.1-1.1-0.4-1.5c-0.3-0.3-0.7-0.5-1.3-0.5c-0.4,0-0.8,0.1-1.2,0.3c-0.4,0.2-0.7,0.4-1.1,0.7v9.1L94.9,79.1L94.9,79.1z"/>
	<path class="st0" d="M118,75.8h6.6v3.3h-10.8V61.3h4.1L118,75.8L118,75.8z"/>
	<path class="st0" d="M131.5,66.2c0.8,0,1.6,0.1,2.3,0.4s1.3,0.6,1.8,1.1s0.9,1.1,1.2,1.8c0.3,0.7,0.4,1.5,0.4,2.5
		c0,0.3,0,0.5,0,0.7s-0.1,0.3-0.1,0.4c-0.1,0.1-0.2,0.2-0.3,0.2s-0.3,0.1-0.4,0.1h-7.3c0.1,1.1,0.4,1.8,1,2.3c0.5,0.5,1.2,0.7,2,0.7
		c0.4,0,0.8-0.1,1.1-0.2s0.6-0.2,0.9-0.4c0.2-0.1,0.5-0.2,0.7-0.4s0.4-0.2,0.7-0.2s0.5,0.1,0.7,0.3l1.1,1.4
		c-0.4,0.4-0.8,0.8-1.3,1.1c-0.5,0.3-0.9,0.5-1.4,0.7s-1,0.3-1.4,0.3c-0.5,0.1-0.9,0.1-1.4,0.1c-0.9,0-1.7-0.1-2.5-0.4
		s-1.5-0.7-2-1.3c-0.6-0.6-1-1.3-1.4-2.1c-0.3-0.9-0.5-1.8-0.5-3c0-0.9,0.1-1.7,0.4-2.4c0.3-0.8,0.7-1.4,1.3-2c0.5-0.6,1.2-1,2-1.4
		C129.7,66.4,130.6,66.2,131.5,66.2z M131.6,68.9c-0.7,0-1.3,0.2-1.7,0.6s-0.7,1-0.8,1.8h4.7c0-0.3,0-0.6-0.1-0.9s-0.2-0.5-0.4-0.8
		c-0.2-0.2-0.4-0.4-0.7-0.5C132.4,68.9,132,68.9,131.6,68.9z"/>
	<path class="st0" d="M143.9,66.2c0.5,0,1,0.1,1.5,0.2s0.9,0.3,1.3,0.5h3.8v1.4c0,0.2-0.1,0.4-0.2,0.5c-0.1,0.1-0.3,0.2-0.6,0.3
		l-0.9,0.2c0.1,0.4,0.2,0.7,0.2,1.1c0,0.6-0.1,1.2-0.4,1.7c-0.3,0.5-0.6,0.9-1.1,1.3s-1,0.6-1.6,0.8c-0.6,0.2-1.3,0.3-2,0.3
		c-0.4,0-0.8,0-1.1-0.1c-0.3,0.2-0.4,0.4-0.4,0.6s0.1,0.4,0.3,0.5s0.5,0.2,0.9,0.2s0.8,0.1,1.3,0.1s1,0,1.4,0.1c0.5,0,1,0.1,1.4,0.2
		c0.5,0.1,0.9,0.3,1.3,0.5c0.4,0.2,0.7,0.6,0.9,1s0.3,0.9,0.3,1.5s-0.1,1.1-0.4,1.7c-0.3,0.5-0.7,1-1.2,1.5c-0.5,0.4-1.2,0.8-2,1
		c-0.8,0.3-1.7,0.4-2.7,0.4s-1.9-0.1-2.6-0.3c-0.7-0.2-1.3-0.4-1.8-0.7c-0.5-0.3-0.8-0.7-1.1-1.1c-0.2-0.4-0.3-0.8-0.3-1.3
		c0-0.6,0.2-1,0.5-1.4s0.8-0.7,1.4-0.9c-0.3-0.2-0.5-0.4-0.7-0.7c-0.2-0.3-0.3-0.7-0.3-1.1c0-0.2,0-0.4,0.1-0.6s0.2-0.4,0.3-0.6
		s0.3-0.4,0.5-0.6s0.5-0.3,0.8-0.5c-0.7-0.4-1.2-0.8-1.6-1.4c-0.4-0.6-0.6-1.3-0.6-2c0-0.6,0.1-1.2,0.4-1.7c0.3-0.5,0.6-0.9,1.1-1.3
		s1-0.6,1.7-0.8C142.5,66.3,143.2,66.2,143.9,66.2z M146.7,79.6c0-0.2-0.1-0.4-0.2-0.5c-0.1-0.1-0.3-0.2-0.5-0.3
		c-0.2-0.1-0.5-0.1-0.8-0.2c-0.3,0-0.6-0.1-0.9-0.1c-0.3,0-0.7,0-1,0c-0.4,0-0.7,0-1.1-0.1c-0.2,0.2-0.4,0.3-0.6,0.5
		s-0.2,0.4-0.2,0.7c0,0.2,0,0.3,0.1,0.5c0.1,0.1,0.2,0.3,0.4,0.4s0.5,0.2,0.8,0.3c0.3,0.1,0.8,0.1,1.3,0.1s1,0,1.3-0.1
		c0.4-0.1,0.6-0.2,0.8-0.3c0.2-0.1,0.4-0.3,0.4-0.4C146.7,80,146.7,79.8,146.7,79.6z M143.9,72.1c0.6,0,1.1-0.2,1.4-0.5
		c0.3-0.3,0.4-0.7,0.4-1.2s-0.1-0.9-0.4-1.2c-0.3-0.3-0.7-0.4-1.4-0.4c-0.6,0-1.1,0.1-1.4,0.4c-0.3,0.3-0.4,0.7-0.4,1.2
		c0,0.2,0,0.5,0.1,0.7s0.2,0.4,0.3,0.5c0.1,0.2,0.3,0.3,0.6,0.4C143.3,72.1,143.6,72.1,143.9,72.1z"/>
	<path class="st0" d="M160.5,79.1c-0.4,0-0.6,0-0.8-0.1s-0.3-0.3-0.5-0.6l-0.3-0.7c-0.3,0.3-0.6,0.5-0.9,0.7s-0.6,0.4-0.9,0.5
		c-0.3,0.1-0.6,0.2-1,0.3c-0.4,0.1-0.8,0.1-1.2,0.1c-0.6,0-1.1-0.1-1.6-0.2c-0.5-0.2-0.9-0.4-1.2-0.7c-0.3-0.3-0.6-0.7-0.8-1.1
		s-0.3-0.9-0.3-1.5c0-0.5,0.1-0.9,0.3-1.4s0.6-0.9,1.2-1.3c0.6-0.4,1.3-0.7,2.3-1s2.2-0.4,3.6-0.4v-0.5c0-0.8-0.2-1.3-0.5-1.6
		c-0.3-0.3-0.7-0.5-1.3-0.5c-0.4,0-0.8,0-1.1,0.1s-0.5,0.2-0.8,0.3c-0.2,0.1-0.4,0.2-0.7,0.3c-0.2,0.1-0.5,0.1-0.8,0.1
		s-0.5-0.1-0.7-0.2s-0.3-0.3-0.4-0.5l-0.7-1.2c0.8-0.7,1.6-1.2,2.6-1.5c0.9-0.3,1.9-0.5,3-0.5c0.8,0,1.5,0.1,2.1,0.4s1.1,0.6,1.6,1
		c0.4,0.4,0.8,1,1,1.6s0.3,1.3,0.3,2v7.9h-1.5V79.1z M156.2,76.8c0.5,0,0.9-0.1,1.3-0.3c0.4-0.2,0.7-0.4,1.1-0.8V74
		c-0.8,0-1.4,0-1.9,0.1s-0.9,0.2-1.2,0.4c-0.3,0.1-0.5,0.3-0.6,0.5s-0.2,0.4-0.2,0.6c0,0.4,0.1,0.7,0.4,0.9S155.7,76.8,156.2,76.8z"
		/>
	<path class="st0" d="M168.9,60.8v18.4h-3.8V60.8H168.9z"/>
</g>
<g>
	<rect x="0.1" y="85.4" class="st0" width="168.8" height="0.7"/>
</g>
<g>
	<path class="st0" d="M39.4,99.4v5.3h-2.8V89.6h4.9c1,0,1.9,0.1,2.6,0.4c0.7,0.2,1.3,0.6,1.8,1s0.8,0.9,1.1,1.5
		c0.2,0.6,0.3,1.2,0.3,1.9c0,0.7-0.1,1.4-0.4,2c-0.2,0.6-0.6,1.1-1.1,1.6c-0.5,0.4-1.1,0.8-1.8,1c-0.7,0.2-1.6,0.4-2.6,0.4
		C41.4,99.4,39.4,99.4,39.4,99.4z M39.4,97.2h2.1c0.5,0,1-0.1,1.3-0.2c0.4-0.1,0.7-0.3,1-0.6c0.3-0.2,0.4-0.5,0.6-0.9
		c0.1-0.3,0.2-0.7,0.2-1.2c0-0.4-0.1-0.8-0.2-1.1c-0.1-0.3-0.3-0.6-0.6-0.8c-0.3-0.2-0.6-0.4-1-0.5s-0.8-0.2-1.3-0.2h-2.1V97.2z"/>
	<path class="st0" d="M51.8,94v6.8c0,0.7,0.2,1.2,0.5,1.5c0.3,0.4,0.8,0.5,1.4,0.5c0.4,0,0.9-0.1,1.3-0.3c0.4-0.2,0.8-0.5,1.1-0.8
		v-7.8h2.6v10.9h-1.6c-0.3,0-0.6-0.2-0.7-0.5l-0.2-0.9c-0.2,0.2-0.5,0.4-0.7,0.6s-0.5,0.3-0.8,0.5c-0.3,0.1-0.6,0.2-0.9,0.3
		c-0.3,0.1-0.6,0.1-1,0.1c-0.6,0-1.1-0.1-1.6-0.3c-0.4-0.2-0.8-0.5-1.1-0.8c-0.3-0.4-0.5-0.8-0.7-1.3s-0.2-1-0.2-1.6v-6.8L51.8,94
		L51.8,94z"/>
	<path class="st0" d="M61.4,104.8V89.2H64v6.1c0.4-0.5,0.9-0.8,1.4-1.1c0.5-0.3,1.2-0.4,1.9-0.4c0.6,0,1.1,0.1,1.6,0.4
		c0.5,0.2,0.9,0.6,1.3,1.1s0.6,1,0.8,1.7c0.2,0.7,0.3,1.5,0.3,2.3s-0.1,1.5-0.3,2.2c-0.2,0.7-0.5,1.3-0.9,1.8s-0.9,0.9-1.5,1.2
		c-0.6,0.3-1.2,0.4-1.9,0.4c-0.3,0-0.6,0-0.9-0.1s-0.5-0.2-0.7-0.3c-0.2-0.1-0.4-0.3-0.6-0.4c-0.2-0.2-0.4-0.4-0.5-0.6l-0.1,0.7
		c0,0.2-0.1,0.3-0.2,0.4s-0.2,0.1-0.4,0.1h-1.9V104.8z M66.4,95.9c-0.5,0-1,0.1-1.4,0.3c-0.4,0.2-0.7,0.5-1.1,1v4.8
		c0.3,0.4,0.6,0.6,1,0.8c0.3,0.1,0.7,0.2,1.1,0.2s0.7-0.1,1.1-0.2c0.3-0.1,0.6-0.4,0.8-0.7c0.2-0.3,0.4-0.7,0.5-1.1
		c0.1-0.5,0.2-1,0.2-1.6s-0.1-1.2-0.2-1.6S68.2,97,68,96.7c-0.2-0.3-0.4-0.5-0.7-0.6C67,95.9,66.7,95.9,66.4,95.9z"/>
	<path class="st0" d="M76,89.2v15.6h-2.6V89.2H76z"/>
	<path class="st0" d="M82.1,90.9c0,0.2,0,0.4-0.1,0.6s-0.2,0.4-0.4,0.5c-0.2,0.1-0.3,0.3-0.5,0.4s-0.4,0.1-0.6,0.1s-0.4,0-0.6-0.1
		s-0.4-0.2-0.5-0.4c-0.1-0.1-0.3-0.3-0.4-0.5s-0.1-0.4-0.1-0.6s0-0.4,0.1-0.6s0.2-0.4,0.4-0.5c0.1-0.1,0.3-0.3,0.5-0.4
		s0.4-0.1,0.6-0.1s0.4,0,0.6,0.1s0.4,0.2,0.5,0.4c0.2,0.1,0.3,0.3,0.4,0.5C82,90.5,82.1,90.7,82.1,90.9z M81.7,94v10.8h-2.6V94.1
		h2.6V94z"/>
	<path class="st0" d="M91,96.1c-0.1,0.1-0.1,0.2-0.2,0.2s-0.2,0.1-0.3,0.1c-0.1,0-0.3,0-0.4-0.1s-0.3-0.1-0.5-0.2s-0.4-0.2-0.6-0.2
		c-0.2-0.1-0.5-0.1-0.9-0.1c-0.5,0-0.9,0.1-1.2,0.3c-0.3,0.2-0.4,0.5-0.4,0.8c0,0.2,0.1,0.4,0.2,0.6s0.3,0.3,0.6,0.4
		c0.2,0.1,0.5,0.2,0.8,0.3c0.3,0.1,0.6,0.2,1,0.3c0.3,0.1,0.6,0.2,1,0.4c0.3,0.1,0.6,0.3,0.8,0.5c0.2,0.2,0.4,0.5,0.6,0.8
		s0.2,0.7,0.2,1.1c0,0.5-0.1,1-0.3,1.4c-0.2,0.4-0.5,0.8-0.8,1.1c-0.4,0.3-0.8,0.6-1.3,0.7c-0.5,0.2-1.1,0.3-1.8,0.3
		c-0.4,0-0.7,0-1.1-0.1s-0.7-0.2-1-0.3c-0.3-0.1-0.6-0.3-0.9-0.4c-0.3-0.2-0.5-0.3-0.7-0.5l0.6-1c0.1-0.1,0.2-0.2,0.3-0.3
		c0.1-0.1,0.2-0.1,0.4-0.1c0.2,0,0.3,0,0.5,0.1c0.1,0.1,0.3,0.2,0.5,0.3c0.2,0.1,0.4,0.2,0.7,0.3c0.3,0.1,0.6,0.1,1,0.1
		c0.3,0,0.6,0,0.8-0.1c0.2-0.1,0.4-0.2,0.5-0.3c0.1-0.1,0.2-0.3,0.3-0.4c0.1-0.2,0.1-0.3,0.1-0.5c0-0.3-0.1-0.5-0.2-0.6
		c-0.2-0.2-0.3-0.3-0.6-0.4s-0.5-0.2-0.8-0.3c-0.3-0.1-0.6-0.2-1-0.3c-0.3-0.1-0.7-0.2-1-0.4c-0.3-0.2-0.6-0.3-0.8-0.6
		c-0.2-0.2-0.4-0.5-0.6-0.8s-0.2-0.7-0.2-1.2c0-0.4,0.1-0.9,0.3-1.3s0.4-0.7,0.8-1c0.3-0.3,0.8-0.5,1.3-0.7s1.1-0.3,1.8-0.3
		c0.7,0,1.4,0.1,2,0.4c0.6,0.2,1.1,0.6,1.5,1L91,96.1z"/>
	<path class="st0" d="M93.7,104.8V89.2h2.6v6c0.4-0.4,0.9-0.7,1.4-1c0.5-0.2,1.1-0.4,1.8-0.4c0.6,0,1.1,0.1,1.6,0.3
		c0.5,0.2,0.8,0.5,1.1,0.8c0.3,0.4,0.5,0.8,0.7,1.3s0.2,1,0.2,1.6v6.8h-2.6v-6.8c0-0.7-0.2-1.2-0.5-1.5c-0.3-0.4-0.8-0.5-1.4-0.5
		c-0.4,0-0.9,0.1-1.3,0.3c-0.4,0.2-0.8,0.5-1.1,0.8v7.8L93.7,104.8L93.7,104.8z"/>
	<path class="st0" d="M108.8,90.9c0,0.2,0,0.4-0.1,0.6s-0.2,0.4-0.4,0.5c-0.1,0.1-0.3,0.3-0.5,0.4s-0.4,0.1-0.6,0.1
		c-0.2,0-0.4,0-0.6-0.1c-0.2-0.1-0.4-0.2-0.5-0.4c-0.1-0.1-0.3-0.3-0.4-0.5c-0.1-0.2-0.1-0.4-0.1-0.6s0-0.4,0.1-0.6s0.2-0.4,0.4-0.5
		c0.1-0.1,0.3-0.3,0.5-0.4s0.4-0.1,0.6-0.1c0.2,0,0.4,0,0.6,0.1c0.2,0.1,0.4,0.2,0.5,0.4c0.1,0.1,0.3,0.3,0.4,0.5
		S108.8,90.7,108.8,90.9z M108.4,94v10.8h-2.6V94.1h2.6V94z"/>
	<path class="st0" d="M111.3,104.8V94.1h1.6c0.3,0,0.6,0.2,0.7,0.5l0.2,0.8c0.2-0.2,0.4-0.4,0.7-0.6c0.2-0.2,0.5-0.3,0.8-0.5
		c0.3-0.1,0.6-0.2,0.9-0.3c0.3-0.1,0.6-0.1,1-0.1c0.6,0,1.1,0.1,1.6,0.3c0.5,0.2,0.8,0.5,1.1,0.8c0.3,0.4,0.5,0.8,0.7,1.3
		s0.2,1,0.2,1.6v6.8h-2.6v-6.8c0-0.7-0.2-1.2-0.5-1.5c-0.3-0.4-0.8-0.5-1.4-0.5c-0.4,0-0.9,0.1-1.3,0.3s-0.8,0.5-1.1,0.8v7.8
		L111.3,104.8L111.3,104.8z"/>
	<path class="st0" d="M126.9,93.8c0.5,0,0.9,0,1.3,0.1c0.4,0.1,0.8,0.2,1.1,0.4h3.1v1c0,0.2,0,0.3-0.1,0.4s-0.2,0.2-0.4,0.2l-1,0.2
		c0.1,0.2,0.1,0.4,0.2,0.6c0,0.2,0.1,0.4,0.1,0.6c0,0.5-0.1,1-0.3,1.4s-0.5,0.8-0.9,1.1c-0.4,0.3-0.8,0.5-1.3,0.7s-1.1,0.2-1.7,0.2
		c-0.4,0-0.8,0-1.2-0.1c-0.3,0.2-0.5,0.4-0.5,0.7c0,0.2,0.1,0.4,0.3,0.5s0.5,0.2,0.8,0.2s0.7,0.1,1.1,0.1c0.4,0,0.8,0,1.3,0.1
		c0.4,0,0.9,0.1,1.3,0.2c0.4,0.1,0.8,0.2,1.1,0.4c0.3,0.2,0.6,0.4,0.8,0.8c0.2,0.3,0.3,0.7,0.3,1.3c0,0.5-0.1,0.9-0.4,1.4
		c-0.2,0.4-0.6,0.8-1,1.2c-0.4,0.3-1,0.6-1.6,0.8c-0.6,0.2-1.4,0.3-2.2,0.3s-1.5-0.1-2.1-0.2c-0.6-0.2-1.1-0.4-1.5-0.6
		c-0.4-0.3-0.7-0.6-0.9-0.9s-0.3-0.7-0.3-1.1c0-0.5,0.2-0.9,0.5-1.3c0.3-0.3,0.7-0.6,1.3-0.8c-0.3-0.1-0.5-0.3-0.6-0.6
		c-0.2-0.2-0.2-0.6-0.2-1c0-0.2,0-0.3,0.1-0.5s0.1-0.3,0.3-0.5c0.1-0.2,0.3-0.3,0.4-0.5s0.4-0.3,0.6-0.4c-0.5-0.3-1-0.7-1.3-1.2
		s-0.5-1.1-0.5-1.7c0-0.5,0.1-1,0.3-1.4s0.5-0.8,0.9-1.1c0.4-0.3,0.8-0.5,1.3-0.7C125.7,93.9,126.3,93.8,126.9,93.8z M129.7,105.2
		c0-0.2-0.1-0.4-0.2-0.5c-0.1-0.1-0.3-0.2-0.5-0.3c-0.2-0.1-0.5-0.1-0.8-0.2c-0.3,0-0.6-0.1-0.9-0.1c-0.3,0-0.7,0-1,0s-0.7,0-1-0.1
		c-0.3,0.2-0.5,0.4-0.7,0.6s-0.3,0.5-0.3,0.8c0,0.2,0,0.4,0.1,0.5c0.1,0.2,0.2,0.3,0.4,0.4s0.5,0.2,0.8,0.3c0.3,0.1,0.7,0.1,1.2,0.1
		s0.9,0,1.2-0.1s0.6-0.2,0.9-0.3c0.2-0.1,0.4-0.3,0.5-0.5C129.7,105.6,129.7,105.4,129.7,105.2z M126.9,99.1c0.3,0,0.6,0,0.8-0.1
		s0.4-0.2,0.6-0.4c0.2-0.2,0.3-0.3,0.4-0.6c0.1-0.2,0.1-0.5,0.1-0.7c0-0.5-0.2-1-0.5-1.3s-0.8-0.5-1.4-0.5c-0.6,0-1.1,0.2-1.4,0.5
		c-0.3,0.3-0.5,0.7-0.5,1.3c0,0.3,0,0.5,0.1,0.7s0.2,0.4,0.4,0.6s0.4,0.3,0.6,0.4C126.3,99.1,126.6,99.1,126.9,99.1z"/>
</g>
</svg>
