<svg version="1.1" xmlns="http://www.w3.org/2000/svg" x="0px" y="0px" viewBox="0 0 232.6 90.8" width="233" height="91" xml:space="preserve"><path fill="#FFFFFF" d="M11.9,19.5c6.6,4.5,12.7,10.6,17.9,18.3c1.2,1.7,2.3,3.6,3.4,5.4h15.6c-0.8-0.9-1.7-1.8-2.6-2.7C36.4,30.8,24.7,23.7,11.9,19.5z M13.8,47.6c1.7,6,3.1,12.5,4.2,19.3h20.7c-2.1-7-4.7-13.4-7.9-19.3C30.8,47.6,13.8,47.6,13.8,47.6z M12.5,43.3h15.8C20.8,31.2,11,22.4,0,18.2V19c4,4.5,7.7,11,10.8,19.3C11.4,39.9,11.9,41.6,12.5,43.3z M35.6,47.6c3.1,6,5.6,12.5,7.6,19.3h21.1c-3-6.9-6.9-13.4-11.7-19.3C52.6,47.6,35.6,47.6,35.6,47.6z M14.3,71.1H0v19.7h16C15.7,84.1,15.1,77.5,14.3,71.1z M0,0v12.3c18.6,3,35.7,11.7,49.2,25.2C63.8,52.1,72.7,70.7,75,90.8h15.8V0H0z M55.7,29.2H52V8.1h3.6v21.1H55.7z M69.4,15.1h-3.6v-1.6c0-1.8-0.8-2.5-1.8-2.5c-1.5,0-1.9,0.8-1.9,2.3V24c0,1.6,0.5,2.3,1.9,2.3c1.3,0,1.8-0.8,1.8-2.1v-2.5h3.6v2.4c0,3-1.8,5.4-5.4,5.4c-3.8,0-5.6-2.4-5.6-5.4V13.2c0-3,1.8-5.4,5.6-5.4c3.6,0,5.4,2.6,5.4,5.8V15.1z M82.9,15.1h-3.6v-1.6c0-1.8-0.8-2.5-1.8-2.5c-1.5,0-1.9,0.8-1.9,2.3V24c0,1.6,0.5,2.3,1.9,2.3c1.3,0,1.8-0.8,1.8-2.1v-2.5h3.6v2.4c0,3-1.8,5.4-5.4,5.4c-3.8,0-5.6-2.4-5.6-5.4V13.2c0-3,1.8-5.4,5.6-5.4c3.6,0,5.4,2.6,5.4,5.8V15.1z M43.1,90.8c-0.6-6.8-1.7-13.5-3.3-19.7H18.6c0.9,6.3,1.4,12.9,1.7,19.7H43.1z M65.9,71.1H44.3c1.5,6.3,2.6,12.9,3.1,19.7h23.3C69.9,84.1,68.3,77.5,65.9,71.1z M6.8,39.8C4.7,34.4,2.4,29.7,0,26v17.3h8C7.6,42.1,7.2,41,6.8,39.8z M9.3,47.6H0v19.3h13.6C12.5,60,11.1,53.5,9.3,47.6z M109.9,15.4c-0.3-2.9-1.2-4.2-2.8-4.2c-2.3,0-3.4,2.1-3.4,7.9s1,7.9,3.4,7.9c1.9,0,3-1.3,3-4.7h2c-0.1,4.1-1.9,6.5-5,6.5c-3.3,0-5.4-2.5-5.4-9.6s2.1-9.6,5.4-9.6c2.8,0,4.5,1.9,4.8,5.9h-2V15.4z M119.9,28.7c-3.1,0-5.3-2.6-5.3-9.6c0-6.9,2.1-9.6,5.3-9.6s5.3,2.6,5.3,9.6C125.2,26.1,123.1,28.7,119.9,28.7z M119.9,11.3c-1.8,0-3.3,1.5-3.3,7.9c0,6.3,1.4,7.9,3.3,7.9s3.3-1.5,3.3-7.9C123.2,12.8,121.7,11.3,119.9,11.3z M131,9.8l3.3,14.1h0.1l3.2-14.1h3.2v18.6h-1.9v-17h-0.1l-3.9,17.1h-1.3l-3.9-17.1h-0.1v17.1h-1.9V9.8H131z M146.8,9.8l3.3,14.1h0.1l3.2-14.1h3.2v18.6h-1.9v-17h-0.1l-3.9,17.1h-1.3l-3.9-17.1h-0.1v17.1h-1.9V9.8H146.8z M161.7,9.8v13.7c0,1.9,0.5,3.5,2.7,3.5s2.7-1.6,2.7-3.5V9.8h2v13.7c0,3-1.4,5.2-4.7,5.2c-3.4,0-4.7-2.2-4.7-5.2V9.8H161.7z M175.4,9.8l4.8,13.7h0.1V9.8h2v18.6h-2.2l-5.8-16.2h-0.1v16.2h-2V9.8H175.4z M187.6,9.8v18.6h-2V9.8H187.6z M199.3,9.8v1.7h-3.8v16.9h-2V11.5h-3.8V9.8H199.3z M202.1,9.8l3.2,8.2l3.1-8.2h2.2l-4.3,10.7v7.9h-2v-7.9L200,9.8H202.1z M102.6,35.6h3.5c3.9,0,6.3,2.2,6.3,9.3s-2.4,9.3-6.3,9.3h-3.5V35.6z M104.6,52.6h1.1c2.9,0,4.6-1.2,4.6-7.6s-1.7-7.6-4.6-7.6h-1.1V52.6z M124,35.6v1.7h-6.5v6.3h4.8v1.7h-4.8v7.2h6.8v1.7h-8.8V35.6H124z M127.7,35.6l3.3,14.8h0.1l3.3-14.8h2L132,54.2h-1.9l-4.4-18.6H127.7z M146.9,35.6v1.7h-6.5v6.3h4.8v1.7h-4.8v7.2h6.8v1.7h-8.8V35.6H146.9z M151.9,35.6v16.9h6v1.7h-8.1V35.6H151.9z M164.7,54.5c-3.1,0-5.3-2.6-5.3-9.6c0-6.9,2.1-9.6,5.3-9.6s5.3,2.6,5.3,9.6C169.9,51.9,167.8,54.5,164.7,54.5z M164.7,37.1c-1.8,0-3.3,1.5-3.3,7.9c0,6.3,1.4,7.9,3.3,7.9c1.8,0,3.3-1.5,3.3-7.9C167.9,38.6,166.5,37.1,164.7,37.1z M172.6,35.6h4.4c3,0,5,2,5,5.1s-2,5.1-5,5.1h-2.4v8.4h-2V35.6z M174.6,44.1h2.1c2,0,3.2-1.1,3.2-3.4c0-2.3-1.2-3.4-3.2-3.4h-2.1V44.1z M187.2,35.6l3.3,14.1h0.1l3.2-14.1h3.2v18.6h-1.9v-17H195l-3.9,17.1h-1.3l-3.9-17.1h-0.1v17.1H184V35.6H187.2z M208.6,35.6v1.7h-6.5v6.3h4.8v1.7h-4.8v7.2h6.8v1.7h-8.8V35.6H208.6z M214.4,35.6l4.8,13.7h0.1V35.6h2v18.6h-2.2L213.3,38h-0.1v16.2h-2V35.6H214.4z M232.6,35.6v1.7h-3.8v16.9h-2V37.3H223v-1.7H232.6z M108.9,66.2c-0.2-1.9-0.9-3.4-2.9-3.4c-1.5,0-2.6,1-2.6,2.5c0,4.2,7.5,4.3,7.5,10.2c0,3-1.7,4.7-4.8,4.7c-2.9,0-4.7-2.1-4.7-5.3h1.9c0.1,2.2,1.1,3.6,3.1,3.6c1.7,0,2.8-1.1,2.8-3.1c0-4.2-7.5-4.7-7.5-10c0-2.6,1.8-4.3,4.5-4.3s4.4,1.8,4.6,5.1C110.8,66.2,108.9,66.2,108.9,66.2z M118.5,80.3c-3.1,0-5.3-2.6-5.3-9.6c0-6.9,2.1-9.6,5.3-9.6c3.1,0,5.3,2.6,5.3,9.6C123.8,77.7,121.6,80.3,118.5,80.3z M118.5,62.9c-1.8,0-3.3,1.5-3.3,7.9c0,6.3,1.4,7.9,3.3,7.9c1.8,0,3.3-1.5,3.3-7.9C121.7,64.4,120.3,62.9,118.5,62.9z M128.7,61.4v16.9h6V80h-8.1V61.4H128.7z M138.7,61.4v13.7c0,1.9,0.5,3.5,2.7,3.5s2.7-1.6,2.7-3.5V61.4h2v13.7c0,3-1.4,5.2-4.7,5.2c-3.4,0-4.7-2.2-4.7-5.2V61.4H138.7z M157.7,61.4v1.7h-3.8V80h-2V63.1h-3.8v-1.7C148.1,61.4,157.7,61.4,157.7,61.4z M161.8,61.4V80h-2V61.4H161.8z M170.1,80.3c-3.1,0-5.3-2.6-5.3-9.6c0-6.9,2.1-9.6,5.3-9.6s5.3,2.6,5.3,9.6C175.4,77.7,173.3,80.3,170.1,80.3z M170.1,62.9c-1.8,0-3.3,1.5-3.3,7.9c0,6.3,1.4,7.9,3.3,7.9c1.8,0,3.3-1.5,3.3-7.9C173.4,64.4,171.9,62.9,170.1,62.9z M181.2,61.4l4.8,13.7h0.1V61.4h2V80h-2.2l-5.8-16.2H180V80h-2V61.4H181.2z M197.8,66.2c-0.2-1.9-0.9-3.4-2.9-3.4c-1.5,0-2.6,1-2.6,2.5c0,4.2,7.5,4.3,7.5,10.2c0,3-1.7,4.7-4.8,4.7c-2.9,0-4.7-2.1-4.7-5.3h1.9c0.1,2.2,1.1,3.6,3.1,3.6c1.7,0,2.8-1.1,2.8-3.1c0-4.2-7.5-4.7-7.5-10c0-2.6,1.8-4.3,4.5-4.3s4.4,1.8,4.6,5.1C199.7,66.2,197.8,66.2,197.8,66.2z M205.91,60.74c4.9,0.23,4.79,7.35-0.12,7.42C200.89,67.93,201,60.8,205.91,60.74z M205.91,61.34c-4.1-0.04-4.32,5.97-0.22,6.22c1.76,0.07,3.23-1.36,3.22-3.12C208.97,62.75,207.6,61.34,205.91,61.34z M205.12,66.59h-0.66v-4.28c1.09,0.06,3.24-0.37,3.16,1.22c0.03,0.63-0.45,1.16-1.08,1.18l1.22,1.88h-0.72l-1.14-1.86h-0.74L205.12,66.59z M205.12,64.19c0.7,0,1.93,0.13,1.84-0.7c0.1-0.86-1.2-0.6-1.84-0.64V64.19z"/></svg>