<?xml version="1.0" encoding="utf-8"?>
<!-- Generator: Adobe Illustrator 21.0.0, SVG Export Plug-In . SVG Version: 6.00 Build 0)  -->
<svg version="1.1" id="logo" xmlns="http://www.w3.org/2000/svg" xmlns:xlink="http://www.w3.org/1999/xlink" x="0px" y="0px"
	 viewBox="0 0 307.3 139.8" style="enable-background:new 0 0 307.3 139.8;" xml:space="preserve">
<style type="text/css">
	.st0{fill:#FFFFFF;}
</style>
<g>
	<path class="st0" d="M156.1,21.2V47h-2.8V21.2H156.1z"/>
	<path class="st0" d="M171.6,29c-0.4-4.1-1.6-5.8-3.8-5.8c-3.2,0-4.7,2.9-4.7,10.9s1.4,10.9,4.7,10.9c2.6,0,4.1-1.8,4.2-6.6h2.8
		c-0.1,5.7-2.6,8.9-7,8.9c-4.6,0-7.5-3.5-7.5-13.3s2.9-13.3,7.5-13.3c3.8,0,6.2,2.6,6.6,8.1H171.6z"/>
	<path class="st0" d="M189.5,29c-0.4-4.1-1.6-5.8-3.8-5.8c-3.3,0-4.7,2.9-4.7,10.9s1.4,10.9,4.7,10.9c2.6,0,4.1-1.8,4.2-6.6h2.8
		c-0.1,5.7-2.6,8.9-7,8.9c-4.6,0-7.5-3.5-7.5-13.3s2.9-13.3,7.5-13.3c3.8,0,6.2,2.6,6.6,8.1H189.5z"/>
	<path class="st0" d="M164.9,56.6v2.4h-9v8.8h6.6v2.4h-6.6V80h9.4v2.4h-12.2V56.6H164.9z"/>
	<path class="st0" d="M170.2,56.6l4.5,20.4h0.1l4.5-20.4h2.8L176,82.4h-2.6l-6.1-25.8H170.2z"/>
	<path class="st0" d="M192.1,56.6l5.7,25.8H195l-1.5-7.6h-6.6l-1.5,7.6h-2.8l5.7-25.8H192.1z M187.3,72.4h5.8l-2.9-13.9h-0.1
		L187.3,72.4z"/>
	<path class="st0" d="M203.5,56.6V80h8.4v2.4h-11.1V56.6H203.5z"/>
	<path class="st0" d="M217.6,56.6v18.9c0,2.6,0.8,4.9,3.8,4.9s3.8-2.3,3.8-4.9V56.6h2.8v19c0,4.1-1.9,7.1-6.6,7.1s-6.6-3-6.6-7.1
		v-19H217.6z"/>
	<path class="st0" d="M240.4,56.6l5.7,25.8h-2.8l-1.5-7.6h-6.6l-1.5,7.6h-2.8l5.7-25.8H240.4z M235.5,72.4h5.8l-2.9-13.9h-0.1
		L235.5,72.4z"/>
	<path class="st0" d="M258.9,56.6v2.4h-5.3v23.4h-2.8V58.9h-5.3v-2.4H258.9z"/>
	<path class="st0" d="M264.7,56.6v25.8h-2.8V56.6H264.7z"/>
	<path class="st0" d="M276.4,82.7c-4.4,0-7.3-3.6-7.3-13.3c0-9.6,2.9-13.3,7.3-13.3c4.4,0,7.3,3.6,7.3,13.3
		C283.7,79.1,280.8,82.7,276.4,82.7z M276.4,58.6c-2.5,0-4.5,2.1-4.5,10.9c0,8.8,2,10.9,4.5,10.9c2.5,0,4.5-2.1,4.5-10.9
		C280.9,60.7,278.9,58.6,276.4,58.6z"/>
	<path class="st0" d="M291.9,56.6l6.6,19h0.1v-19h2.8v25.8h-3l-8-22.4h-0.1v22.4h-2.8V56.6H291.9z"/>
	<path class="st0" d="M162.3,98.6c-0.2-2.6-1.3-4.6-4-4.6c-2.1,0-3.5,1.4-3.5,3.4c0,5.8,10.4,5.9,10.4,14.2c0,4.1-2.4,6.6-6.6,6.6
		c-4,0-6.5-3-6.5-7.3h2.6c0.1,3,1.5,4.9,4.2,4.9c2.3,0,3.8-1.5,3.8-4.3c0-5.9-10.4-6.5-10.4-13.9c0-3.6,2.5-6,6.2-6s6.1,2.5,6.4,7
		H162.3z"/>
	<path class="st0" d="M181,91.9v2.4h-9v8.8h6.6v2.4H172v9.9h9.4v2.4h-12.2V91.9H181z"/>
	<path class="st0" d="M185.3,91.9h6.2c4.1,0,7.1,2.4,7.1,6.7c0,2.9-1.3,5.3-4.1,6.3l4.4,12.8h-2.9l-4.1-12.2l-3.6,0.1v12.1h-2.8
		V91.9z M188,103.2h2.4c4,0,5.3-1.6,5.3-4.5s-1.3-4.5-5.3-4.5H188V103.2z"/>
	<path class="st0" d="M203.7,91.9l4.5,20.4h0.1l4.5-20.4h2.8l-6.1,25.8H207l-6.1-25.8H203.7z"/>
	<path class="st0" d="M221.8,91.9v25.8H219V91.9H221.8z"/>
	<path class="st0" d="M237.5,99.7c-0.4-4.1-1.6-5.8-3.8-5.8c-3.2,0-4.7,2.9-4.7,10.9s1.4,10.9,4.7,10.9c2.6,0,4.1-1.8,4.2-6.6h2.8
		c-0.1,5.7-2.6,8.9-7,8.9c-4.6,0-7.5-3.5-7.5-13.3s2.9-13.3,7.5-13.3c3.8,0,6.2,2.6,6.6,8.1H237.5z"/>
	<path class="st0" d="M256.8,91.9v2.4h-9v8.8h6.6v2.4h-6.6v9.9h9.4v2.4H245V91.9H256.8z"/>
</g>
<g>
	<g>
		<path class="st0" d="M8.3,7.8v123.4h123.4V7.8H8.3z M117.1,32.7h2.5v0.4h-1v2.8h-0.5v-2.8h-1V32.7z M67.9,105.6H19V33.4h47.8V45
			h-34v17.2h24.7v11.6H32.8V94h35.1V105.6z M97.8,106.6c-11.8,0-22.9-6.6-27-17.1l11.4-5c3.3,6.8,7.6,11.3,15.7,11.3
			c6.9,0,12.2-2.6,12.2-9.6c0-14.2-37.2-11.4-37.2-33.6c0-12.9,10.8-20.2,23.3-20.2c11.6,0,21.2,5.8,25.5,16.3l-12.6,3.9
			c-2.1-5.6-6.4-9.4-12.9-9.4c-6,0-10.3,2.4-10.3,8c0,12.4,37.2,9.8,37.2,33.2C123.1,99.2,113.8,106.6,97.8,106.6z M123.5,35.8H123
			v-2.7h0l-1.1,2.7h-0.3l-1-2.7h0v2.7h-0.5v-3.2h0.8l0.9,2.4l0.9-2.4h0.8V35.8z"/>
	</g>
</g>
</svg>
