<?xml version="1.0" encoding="UTF-8"?>
<svg id="b" xmlns="http://www.w3.org/2000/svg" viewBox="0 0 158.85 81.95"><g id="c"><g><g><path d="M24.06,5.96l-4.14,1.1c-1.04-2.3-2.36-3.3-4.69-3.3-3.07,0-4.92,2.95-4.92,8.48,0,4.92,1.84,8.03,4.95,8.03,2.82,0,4.76-1.81,4.89-4.63h-4.43v-3.75h8.74v11.81h-3.24v-2.4c-1.78,1.94-3.46,2.72-6.08,2.72-5.86,0-9.29-4.43-9.29-11.65S9.21,0,15.58,0c4.14,0,7.22,2.04,8.48,5.96Z" style="fill:#fff;"/><path d="M45.58,.32v3.75h-11v5.57h7.99v3.75h-7.99v6.54h11.36v3.75h-15.83V.32h15.47Z" style="fill:#fff;"/><path d="M55.14,.32l9.19,15.92h.06V.32h4.21V23.69h-4.3L54.75,7.06h-.06V23.69h-4.21V.32h4.66Z" style="fill:#fff;"/><path d="M90.07,.32v3.75h-11v5.57h7.99v3.75h-7.99v6.54h11.36v3.75h-15.83V.32h15.47Z" style="fill:#fff;"/><path d="M104.75,.32c4.5,0,7.35,2.49,7.35,7.06,0,2.94-1.59,5.11-4.27,5.89l5.14,10.42h-4.95l-4.4-9.51h-3.85v9.51h-4.47V.32h9.45Zm-1.52,10.23c2.88,0,4.4-.81,4.4-3.3,0-2.3-1.46-3.3-3.75-3.3h-4.11v6.6h3.46Z" style="fill:#fff;"/><path d="M127.92,.29l6.63,23.4h-4.43l-1.29-5.05h-7.38l-1.39,5.05h-4.43L122.35,.29h5.57Zm-2.75,4.5l-2.75,10.16h5.44l-2.62-10.16h-.06Z" style="fill:#fff;"/><path d="M142.85,.32V19.94h10.16v3.75h-14.63V.32h4.47Z" style="fill:#fff;"/><g><path d="M59.07,42.9c-5.4,0-8.2,3.9-8.2,13.1,0,8.35,2.6,12.4,8.25,12.4s8.25-4.15,8.25-12.75-2.55-12.75-8.3-12.75Z" style="fill:#fff;"/><path d="M98.93,43.4h-4.7v24.5h4.75c6.1,0,9.6-3.65,9.6-12.25s-3.5-12.25-9.65-12.25Z" style="fill:#fff;"/><path d="M0,28.79v53.17H158.85V28.79H0Zm20.34,45.41c-9.25,0-14.5-6.9-14.5-18.55s5.25-18.55,14.5-18.55c6.85,0,10.9,3.1,12.6,9.5l-6.25,1.5c-1.05-3.35-3.4-5.2-6.55-5.2-4.6,0-7.4,4.2-7.4,13.1s2.6,12.4,7.6,12.4c3.6,0,5.25-1.6,7.05-5.35l6.4,1.7c-2.15,6.25-6.8,9.45-13.45,9.45Zm38.78,0c-9.75,0-15.15-6.7-15.15-18.55s5.4-18.55,15.15-18.55,15.15,6.7,15.15,18.55-5.4,18.55-15.15,18.55Zm40.31-.5h-12.1V37.6h12.05c10.15,0,16.1,6.2,16.1,18.05s-5.85,18.05-16.05,18.05Zm53.61,0h-24.45V37.6h23.9v5.8h-17v8.6h12.35v5.8h-12.35v10.1h17.55v5.8Z" style="fill:#fff;"/></g></g><path d="M154.81,1.07c1.47,0,2.72,1.14,2.72,2.68s-1.25,2.7-2.72,2.7-2.73-1.14-2.73-2.7,1.25-2.68,2.73-2.68Zm0,.44c-1.25,0-2.21,.96-2.21,2.25s.96,2.26,2.21,2.26,2.2-.95,2.2-2.26-.96-2.25-2.2-2.25Zm-.57,3.81h-.48V2.21h1.19c.74,0,1.1,.28,1.1,.88,0,.56-.35,.8-.81,.86l.88,1.36h-.52l-.83-1.35h-.54v1.35Zm0-1.74h.57c.58,0,.77-.17,.77-.51,0-.3-.15-.46-.69-.46h-.65v.97Z" style="fill:#fff;"/></g></g></svg>