<svg id="logo" xmlns="http://www.w3.org/2000/svg" width="237" height="86" viewBox="0 0 237 86.36"><defs><style>.cls-1{fill:#fff;}</style></defs><title>ias_logo</title><polygon class="cls-1" points="33.36 28.91 27.92 49.01 38.67 49.01 33.49 28.91 33.36 28.91"/><path class="cls-1" d="M8.87,7.42V93.78H95.23V7.42ZM22.26,73.7H13.43V27.5h8.83ZM52,73.7l-2.56-10H34.87l-2.75,10H23.35L36.66,27.43h11L60.79,73.7Zm24.45.64c-7.55,0-14.65-4.22-17.28-10.94l7.3-3.2c2.11,4.35,4.86,7.23,10,7.23,4.42,0,7.81-1.66,7.81-6.14,0-9.09-23.81-7.3-23.81-21.5,0-8.25,6.91-12.93,14.91-12.93,7.42,0,13.57,3.71,16.32,10.43l-8.06,2.5c-1.34-3.58-4.1-6-8.26-6-3.84,0-6.59,1.54-6.59,5.12,0,7.94,23.81,6.27,23.81,21.25C92.66,69.61,86.71,74.34,76.47,74.34Z" transform="translate(-8.87 -7.42)"/><path class="cls-1" d="M112.37,16.83v18h-1.95v-18Z" transform="translate(-8.87 -7.42)"/><path class="cls-1" d="M118.62,16.83l4.65,13.3h.05V16.83h1.95v18h-2.1l-5.6-15.7h0v15.7h-1.95v-18Z" transform="translate(-8.87 -7.42)"/><path class="cls-1" d="M136.2,16.83v1.65h-3.7v16.4h-1.95V18.48h-3.7V16.83Z" transform="translate(-8.87 -7.42)"/><path class="cls-1" d="M146.3,16.83v1.65H140v6.15h4.65v1.65H140v6.95h6.6v1.65H138v-18Z" transform="translate(-8.87 -7.42)"/><path class="cls-1" d="M149.15,16.83h4.35c2.9,0,4.95,1.7,4.95,4.67a4.34,4.34,0,0,1-2.9,4.42l3,8.95h-2l-2.9-8.55-2.55.1v8.45h-1.95Zm1.95,7.9h1.7c2.8,0,3.7-1.1,3.7-3.12s-.9-3.12-3.7-3.12h-1.7Z" transform="translate(-8.87 -7.42)"/><path class="cls-1" d="M164.45,16.83l4.65,13.3h.05V16.83h1.95v18H169l-5.6-15.7h0v15.7H161.4v-18Z" transform="translate(-8.87 -7.42)"/><path class="cls-1" d="M179.4,16.83l4,18h-1.95l-1.07-5.35h-4.6l-1.07,5.35h-1.95l4-18Zm-3.37,11h4l-2-9.7H178Z" transform="translate(-8.87 -7.42)"/><path class="cls-1" d="M192.19,16.83v1.65h-3.7v16.4h-1.95V18.48h-3.7V16.83Z" transform="translate(-8.87 -7.42)"/><path class="cls-1" d="M196.15,16.83v18H194.2v-18Z" transform="translate(-8.87 -7.42)"/><path class="cls-1" d="M204.2,35.12c-3,0-5.1-2.55-5.1-9.27s2-9.27,5.1-9.27,5.1,2.55,5.1,9.27S207.24,35.12,204.2,35.12Zm0-16.9c-1.75,0-3.15,1.5-3.15,7.62s1.4,7.62,3.15,7.62,3.15-1.5,3.15-7.62S205.94,18.23,204.2,18.23Z" transform="translate(-8.87 -7.42)"/><path class="cls-1" d="M214.9,16.83l4.65,13.3h.05V16.83h1.95v18h-2.1l-5.6-15.7h0v15.7h-1.95v-18Z" transform="translate(-8.87 -7.42)"/><path class="cls-1" d="M229.85,16.83l4,18h-1.95l-1.07-5.35h-4.6l-1.07,5.35h-1.95l4-18Zm-3.37,11h4l-2-9.7h-.05Z" transform="translate(-8.87 -7.42)"/><path class="cls-1" d="M237.65,16.83v16.4h5.85v1.65h-7.8v-18Z" transform="translate(-8.87 -7.42)"/><path class="cls-1" d="M117.12,41.58l4,18h-1.95l-1.07-5.35h-4.6l-1.07,5.35h-1.95l4-18Zm-3.37,11h4l-2-9.7h-.05Z" transform="translate(-8.87 -7.42)"/><path class="cls-1" d="M130.37,47c-.25-2.85-1.15-4-2.67-4-2.27,0-3.27,2-3.27,7.62s1,7.62,3.27,7.62c1.82,0,2.87-1.25,2.92-4.6h1.95c0,4-1.8,6.25-4.87,6.25s-5.22-2.45-5.22-9.27,2-9.27,5.22-9.27c2.67,0,4.32,1.85,4.62,5.7Z" transform="translate(-8.87 -7.42)"/><path class="cls-1" d="M142.92,47c-.25-2.85-1.15-4-2.67-4C138,43,137,45,137,50.6s1,7.62,3.27,7.62c1.82,0,2.87-1.25,2.92-4.6h1.95c0,4-1.8,6.25-4.87,6.25S135,57.42,135,50.6s2-9.27,5.22-9.27c2.67,0,4.32,1.85,4.62,5.7Z" transform="translate(-8.87 -7.42)"/><path class="cls-1" d="M148,41.58h4.35c2.9,0,4.95,1.7,4.95,4.67a4.34,4.34,0,0,1-2.9,4.42l3,8.95h-2l-2.9-8.55-2.55.1v8.45H148Zm1.95,7.9h1.7c2.8,0,3.7-1.1,3.7-3.12s-.9-3.12-3.7-3.12H150Z" transform="translate(-8.87 -7.42)"/><path class="cls-1" d="M168.77,41.58v1.65h-6.3v6.15h4.65V51h-4.65V58h6.6v1.65h-8.55v-18Z" transform="translate(-8.87 -7.42)"/><path class="cls-1" d="M171.62,41.58H175c3.8,0,6.1,2.1,6.1,9s-2.3,9-6.1,9h-3.35ZM173.57,58h1c2.85,0,4.5-1.2,4.5-7.37s-1.65-7.37-4.5-7.37h-1Z" transform="translate(-8.87 -7.42)"/><path class="cls-1" d="M186.22,41.58v18h-1.95v-18Z" transform="translate(-8.87 -7.42)"/><path class="cls-1" d="M197.54,41.58v1.65h-3.7v16.4H191.9V43.23h-3.7V41.58Z" transform="translate(-8.87 -7.42)"/><path class="cls-1" d="M203.67,41.58l4,18H205.7l-1.07-5.35H200l-1.07,5.35H197l4-18Zm-3.37,11h4l-2-9.7h-.05Z" transform="translate(-8.87 -7.42)"/><path class="cls-1" d="M216.47,41.58v1.65h-3.7v16.4h-1.95V43.23h-3.7V41.58Z" transform="translate(-8.87 -7.42)"/><path class="cls-1" d="M220.42,41.58v18h-1.95v-18Z" transform="translate(-8.87 -7.42)"/><path class="cls-1" d="M228.52,59.87c-3,0-5.1-2.55-5.1-9.27s2-9.27,5.1-9.27,5.1,2.55,5.1,9.27S231.57,59.87,228.52,59.87Zm0-16.9c-1.75,0-3.15,1.5-3.15,7.62s1.4,7.62,3.15,7.62,3.15-1.5,3.15-7.62S230.27,43,228.52,43Z" transform="translate(-8.87 -7.42)"/><path class="cls-1" d="M239.22,41.58l4.65,13.3h.05V41.58h1.95v18h-2.1l-5.6-15.7h-.05v15.7h-1.95v-18Z" transform="translate(-8.87 -7.42)"/><path class="cls-1" d="M117.52,71c-.15-1.85-.9-3.25-2.77-3.25a2.31,2.31,0,0,0-2.47,2.37c0,4.07,7.25,4.12,7.25,9.92,0,2.87-1.65,4.6-4.62,4.6s-4.52-2.07-4.57-5.1h1.8c.05,2.12,1,3.45,3,3.45,1.62,0,2.67-1,2.67-3,0-4.1-7.25-4.57-7.25-9.72a4,4,0,0,1,4.35-4.2c2.6,0,4.3,1.75,4.45,4.9Z" transform="translate(-8.87 -7.42)"/><path class="cls-1" d="M130.47,66.33V68h-6.3v6.15h4.65v1.65h-4.65v6.95h6.6v1.65h-8.55v-18Z" transform="translate(-8.87 -7.42)"/><path class="cls-1" d="M133.32,66.33h4.35c2.9,0,4.95,1.7,4.95,4.67a4.34,4.34,0,0,1-2.9,4.42l3,8.95h-2l-2.9-8.55-2.55.1v8.45h-1.95Zm1.95,7.9H137c2.8,0,3.7-1.1,3.7-3.12S139.77,68,137,68h-1.7Z" transform="translate(-8.87 -7.42)"/><path class="cls-1" d="M146,66.33l3.17,14.3h.05l3.17-14.3h1.95l-4.25,18h-1.8l-4.25-18Z" transform="translate(-8.87 -7.42)"/><path class="cls-1" d="M158.57,66.33v18h-1.95v-18Z" transform="translate(-8.87 -7.42)"/><path class="cls-1" d="M169.42,71.78c-.25-2.85-1.15-4-2.67-4-2.27,0-3.27,2-3.27,7.62s1,7.62,3.27,7.62c1.82,0,2.87-1.25,2.92-4.6h1.95c0,4-1.8,6.25-4.87,6.25s-5.22-2.45-5.22-9.27,2-9.27,5.22-9.27c2.67,0,4.32,1.85,4.62,5.7Z" transform="translate(-8.87 -7.42)"/><path class="cls-1" d="M182.77,66.33V68h-6.3v6.15h4.65v1.65h-4.65v6.95h6.6v1.65h-8.55v-18Z" transform="translate(-8.87 -7.42)"/><path class="cls-1" d="M183.87,69.93a3.56,3.56,0,1,1,3.56,3.54A3.53,3.53,0,0,1,183.87,69.93Zm6.43,0a2.87,2.87,0,1,0-2.86,3A2.86,2.86,0,0,0,190.29,69.93ZM186.71,72h-.63V67.9h1.57q1.43,0,1.43,1.17a1.07,1.07,0,0,1-1,1.13L189.19,72h-.75l-1.09-1.81h-.64Zm0-2.34h.68c.75,0,1.06-.09,1.06-.65s-.25-.61-.9-.61h-.84Z" transform="translate(-8.87 -7.42)"/></svg>
