<svg xmlns="http://www.w3.org/2000/svg" version="1.1" viewBox="0 0 247 91" x="0px" y="0px" width="247" height="91"><path fill="#fff" d="M11.9,19.6c8.9,6.1,16,14.4,21.4,23.7h15.6c-10-11-22.8-19.2-36.9-23.7ZM13.8,47.6c1.8,6.3,3.2,12.8,4.2,19.3h20.7c-2-6.7-4.6-13.2-7.9-19.3H13.8ZM12.5,43.4h15.8C20.8,31.3,11,22.4,0,18.2v.8c4.8,5.2,9.7,15.4,12.5,24.3ZM35.6,47.6c3.1,6.2,5.7,12.6,7.6,19.3h21.1c-3-6.9-7-13.4-11.7-19.3h-16.9ZM14.3,71.2H0v19.7h16.1c-.3-6.8-.9-13.4-1.8-19.7ZM0,0v12.4c38.9,5.8,71.1,39.4,75.1,78.5h15.8V0H0ZM55.7,29.2h-3.6V8.2h3.6v21.1ZM69.4,15.2h-3.6v-1.6c0-1.8-.8-2.5-1.7-2.5-1.5,0-2,.8-2,2.3v10.7c0,1.6.5,2.3,1.9,2.3s1.8-.8,1.8-2.1v-2.5h3.6v2.4c0,3-1.8,5.4-5.4,5.4s-5.6-2.4-5.6-5.4v-10.9c0-3,1.8-5.4,5.6-5.4s5.4,2.6,5.4,5.8v1.6ZM82.9,15.2h-3.6v-1.6c0-1.8-.8-2.5-1.8-2.5-1.5,0-1.9.8-1.9,2.3v10.7c0,1.6.5,2.3,1.9,2.3s1.8-.8,1.8-2.1v-2.5h3.6v2.4c0,3-1.8,5.4-5.4,5.4s-5.6-2.4-5.6-5.4v-10.9c0-3,1.8-5.4,5.6-5.4,4.5,0,5.6,3.7,5.4,7.3ZM43.1,90.9c-.5-6.7-1.6-13.2-3.3-19.7h-21.2c.9,6.3,1.4,12.9,1.7,19.7h22.8ZM66,71.2h-21.7c1.6,6.5,2.6,13.1,3.1,19.7h23.3c-.8-6.7-2.4-13.4-4.8-19.7ZM6.8,39.9C5,35,2.8,30.4,0,26v17.3h8c-.4-1.2-.8-2.3-1.2-3.5ZM9.3,47.6H0v19.3h13.6c-1-6.5-2.5-13-4.3-19.3ZM104.4,9.5v18.8h-2V9.5h2ZM111.3,9.5l4.8,13.9h0v-13.9h2v18.8h-2.2l-5.8-16.3h0v16.3h-2V9.5h3.2ZM130.4,9.5v1.7h-3.9v17.1h-2V11.3h-3.9v-1.7h9.8ZM141.5,9.5v1.7h-6.6v6.4h4.9v1.7h-4.9v7.2h6.9v1.7h-9V9.5h8.6ZM144.7,9.5h4.6c3,0,5.2,1.8,5.2,4.9.2,2-1.1,3.9-3,4.6l3.2,9.3h-2.2l-3-8.9h-2.7v8.9h-2V9.5ZM146.7,17.8c3.1,0,5.7,0,5.7-3.3,0-3.3-2.5-3.3-5.6-3.3v6.5ZM160.8,9.5l4.9,13.9h0v-13.9h2v18.8h-2.2l-5.8-16.3h0v16.3h-2V9.5h3.2ZM177.1,9.5l4.2,18.8h-2l-1.2-5.6h-4.8l-1.2,5.6h-2l4.2-18.8h2.8ZM173.6,21h4.2l-2.1-10.1h0l-2.1,10.1ZM190.9,9.5v1.7h-3.9v17.1h-2V11.3h-3.9v-1.7h9.8ZM195.5,9.5v18.8h-2V9.5h2ZM204.1,28.6c-3.2,0-5.3-2.7-5.3-9.7s2.2-9.7,5.3-9.7,5.3,2.7,5.3,9.7-2.1,9.7-5.3,9.7ZM204.1,11c-1.8,0-3.3,1.6-3.3,7.9s1.5,7.9,3.3,7.9,3.3-1.6,3.3-7.9-1.5-7.9-3.3-7.9ZM215.8,9.5l4.9,13.9h0v-13.9h2v18.8h-2.2l-5.8-16.3h0v16.3h-2V9.5h3.2ZM232.2,9.5l4.2,18.8h-2l-1.2-5.6h-4.8l-1.1,5.6h-2l4.2-18.8h2.8ZM228.6,21h4.2l-2.1-10.1h0l-2.1,10.1ZM240.9,9.5v17.1h6.1v1.7h-8.2V9.5h2.1ZM110,41.3c-.3-3-1.2-4.2-2.8-4.2-2.4,0-3.4,2.1-3.4,7.9s1,7.9,3.4,7.9,3-1.3,3.1-4.8h2c0,4.2-1.9,6.5-5.1,6.5s-5.5-2.6-5.5-9.7,2.1-9.7,5.5-9.7,4.5,1.9,4.8,5.9h-2ZM120.3,54.7c-3.2,0-5.3-2.7-5.3-9.7s2.2-9.7,5.3-9.7,5.3,2.7,5.3,9.7-2.2,9.7-5.3,9.7ZM120.3,37c-1.8,0-3.3,1.6-3.3,7.9s1.5,7.9,3.3,7.9,3.3-1.6,3.3-7.9-1.5-8-3.3-8h0ZM128.9,35.6h3.5c4,0,6.4,2.2,6.4,9.4s-2.4,9.4-6.4,9.4h-3.5v-18.8ZM130.9,52.7c3.9.1,5.8-.5,5.9-7.7,0-7.2-2-7.8-5.8-7.7v15.4ZM150.8,35.6v1.7h-6.6v6.4h4.9v1.7h-4.9v7.2h6.9v1.7h-9v-18.8h8.7ZM110,67.3c-.3-3-1.2-4.2-2.8-4.2-2.4,0-3.4,2.1-3.4,7.9s1,7.9,3.4,7.9,3-1.3,3.1-4.8h2c0,4.2-1.9,6.5-5.1,6.5s-5.5-2.6-5.5-9.7,2.1-9.7,5.5-9.7,4.5,1.9,4.8,5.9h-2ZM120.3,80.7c-3.2,0-5.3-2.7-5.3-9.7s2.2-9.7,5.3-9.7,5.3,2.7,5.3,9.7-2.2,9.7-5.3,9.7ZM120.3,63.1c-1.8,0-3.3,1.6-3.3,7.9s1.5,7.9,3.3,7.9,3.3-1.6,3.3-7.9-1.5-8-3.3-8h0ZM130.9,61.6v13.8c0,1.9.6,3.5,2.8,3.5s2.8-1.6,2.8-3.5v-13.8h2v13.9c0,3-1.4,5.2-4.8,5.2s-4.8-2.2-4.8-5.2v-13.9h2.1ZM145.3,61.6l4.9,13.9h0v-13.9h2v18.8h-2.2l-5.8-16.4h0v16.4h-2v-18.8h3.2ZM163.6,67.3c-.3-3-1.2-4.2-2.8-4.2-2.4,0-3.4,2.1-3.4,7.9s1,7.9,3.4,7.9,3-1.3,3.1-4.8h2c0,4.2-1.9,6.5-5.1,6.5s-5.5-2.6-5.5-9.7,2.1-9.7,5.5-9.7,4.5,1.9,4.8,5.9h-2ZM171.1,61.6v18.8h-2v-18.8h2ZM177,61.6v17.1h6.1v1.7h-8.2v-18.8h2ZM184.5,61.6c4.9.2,4.8,7.4-.1,7.4-4.9-.2-4.8-7.4.1-7.4ZM184.5,62.2c-4.1,0-4.3,6-.2,6.2,1.8,0,3.2-1.4,3.2-3.1,0-1.7-1.3-3.1-3-3.1ZM183.7,67.5h-.7v-4.3c1.1,0,3.2-.4,3.2,1.2,0,.6-.5,1.2-1.1,1.2l1.2,1.9h-.7l-1.1-1.9h-.7v1.9ZM183.7,65.1c.7,0,1.9.1,1.8-.7,0-.9-1.2-.6-1.8-.6v1.3Z"/></svg>