<svg xmlns="http://www.w3.org/2000/svg" width="3.49in" height="2.27in" viewBox="0 0 251.34 163.1"><title>NTA_WHT</title><path d="M243.12,267.89h16.7v-33h48.3v33h16.7V157l-81.7-22.51ZM259.82,157l48.3,13.26v47.57h-48.3Z" transform="translate(-94.32 -104.8)" fill="#fff"/><path d="M308.14,116.14h1a2.17,2.17,0,0,1,1.35.36,8.43,8.43,0,0,1,1.75,2.42l.93,1.64h2l-1.27-2a11.91,11.91,0,0,0-1.54-2.07,3,3,0,0,0-.89-.55,3.19,3.19,0,0,0,2.16-1,2.73,2.73,0,0,0,.82-2,2.65,2.65,0,0,0-.49-1.53,2.52,2.52,0,0,0-1.31-1,8.44,8.44,0,0,0-2.65-.29h-3.57v10.4h1.67Zm0-4.57h1.91a5.28,5.28,0,0,1,1.69.18,1.55,1.55,0,0,1,.71.54,1.43,1.43,0,0,1,.26.83,1.4,1.4,0,0,1-.54,1.15,3.25,3.25,0,0,1-2,.44h-2Z" transform="translate(-94.32 -104.8)" fill="#fff"/><polygon points="85.43 123.51 82.52 123.51 35.68 48.52 19.7 52.2 19.7 163.09 35.68 163.09 35.68 85.56 37.31 85.56 83.8 163.09 100.5 163.09 100.5 29.64 85.43 34.36 85.43 123.51" fill="#fff"/><polygon points="124.41 0 0 33.09 0 47.25 115.93 16.76 115.93 163.09 133.18 163.09 133.18 16.8 251.34 47.25 251.34 33.09 124.41 0" fill="#fff"/><path d="M310.7,124.88a9.67,9.67,0,1,0-9.67-9.67A9.67,9.67,0,0,0,310.7,124.88Zm0-17.73a8.07,8.07,0,1,1-8.07,8.06A8.06,8.06,0,0,1,310.7,107.15Z" transform="translate(-94.32 -104.8)" fill="#fff"/></svg>
