<svg id="Layer_1" data-name="Layer 1" xmlns="http://www.w3.org/2000/svg" width="301" height="123" viewBox="0 0 300.78 123.38"><defs><style>.cls-1{fill:#fff;}</style></defs><title>skga_logo</title><path class="cls-1" d="M162.19,44.71c-.21-2.64-1.29-4.64-4-4.64a3.3,3.3,0,0,0-3.54,3.39c0,5.82,10.36,5.89,10.36,14.18,0,4.11-2.36,6.57-6.61,6.57-4,0-6.47-3-6.54-7.29h2.57c.07,3,1.5,4.93,4.25,4.93,2.32,0,3.82-1.5,3.82-4.25,0-5.86-10.36-6.54-10.36-13.9,0-3.64,2.5-6,6.22-6s6.14,2.5,6.36,7Z" transform="translate(-8.13 -6.96)"/><path class="cls-1" d="M172.15,60.5v3.36h-3V60.5Z" transform="translate(-8.13 -6.96)"/><path class="cls-1" d="M187.76,38.07V51.21h.07L195,38.07h3l-5,9L199,63.86h-3l-4.79-13.93h-.07l-3.36,6v7.93H185V38.07Z" transform="translate(-8.13 -6.96)"/><path class="cls-1" d="M204.51,60.5v3.36h-3V60.5Z" transform="translate(-8.13 -6.96)"/><path class="cls-1" d="M228.4,46c-.21-3.36-1.21-5.93-4-5.93-3.11,0-4.61,2.79-4.61,10.89s1.5,10.9,4.61,10.9c2.61,0,4-1.43,4-4.07V54.14h-3.5V51.78h6.29V63.86H229.4L229,61.93a5.52,5.52,0,0,1-4.68,2.29c-4.54,0-7.39-3.5-7.39-13.25s2.86-13.25,7.39-13.25c4.75,0,6.46,4.14,6.82,8.29Z" transform="translate(-8.13 -6.96)"/><path class="cls-1" d="M238.54,38.07V49.21h7.57V38.07h2.79V63.86h-2.79V51.57h-7.57V63.86h-2.79V38.07Z" transform="translate(-8.13 -6.96)"/><path class="cls-1" d="M260.4,64.22c-4.36,0-7.29-3.64-7.29-13.25S256,37.71,260.4,37.71s7.29,3.64,7.29,13.25S264.76,64.22,260.4,64.22Zm0-24.15c-2.5,0-4.5,2.14-4.5,10.89s2,10.9,4.5,10.9,4.5-2.14,4.5-10.9S262.9,40.07,260.4,40.07Z" transform="translate(-8.13 -6.96)"/><path class="cls-1" d="M281.11,44.71c-.21-2.64-1.29-4.64-4-4.64a3.3,3.3,0,0,0-3.54,3.39c0,5.82,10.36,5.89,10.36,14.18,0,4.11-2.36,6.57-6.61,6.57-4,0-6.47-3-6.54-7.29h2.57c.07,3,1.5,4.93,4.25,4.93,2.32,0,3.82-1.5,3.82-4.25,0-5.86-10.36-6.54-10.36-13.9,0-3.64,2.5-6,6.21-6s6.14,2.5,6.36,7Z" transform="translate(-8.13 -6.96)"/><path class="cls-1" d="M290.75,38.07V49.21h7.57V38.07h2.79V63.86h-2.79V51.57h-7.57V63.86H288V38.07Z" transform="translate(-8.13 -6.96)"/><path class="cls-1" d="M160.47,73.43l5.68,25.79h-2.79l-1.54-7.64h-6.57l-1.54,7.64h-2.79l5.68-25.79Zm-4.82,15.79h5.79l-2.86-13.86h-.07Z" transform="translate(-8.13 -6.96)"/><path class="cls-1" d="M178.26,80.07c-.21-2.64-1.29-4.64-4-4.64a3.3,3.3,0,0,0-3.54,3.39c0,5.82,10.36,5.89,10.36,14.18,0,4.11-2.36,6.57-6.61,6.57-4,0-6.47-3-6.54-7.29h2.57c.07,3,1.5,4.93,4.25,4.93,2.32,0,3.82-1.5,3.82-4.25,0-5.86-10.36-6.54-10.36-13.9,0-3.64,2.5-6,6.21-6s6.14,2.5,6.36,7Z" transform="translate(-8.13 -6.96)"/><path class="cls-1" d="M194.33,80.07c-.21-2.64-1.29-4.64-4-4.64a3.3,3.3,0,0,0-3.54,3.39c0,5.82,10.36,5.89,10.36,14.18,0,4.11-2.36,6.57-6.61,6.57-4,0-6.46-3-6.54-7.29h2.57c.07,3,1.5,4.93,4.25,4.93,2.32,0,3.82-1.5,3.82-4.25,0-5.86-10.36-6.54-10.36-13.9,0-3.64,2.5-6,6.22-6s6.14,2.5,6.36,7Z" transform="translate(-8.13 -6.96)"/><path class="cls-1" d="M207.76,99.57c-4.36,0-7.29-3.64-7.29-13.25s2.93-13.25,7.29-13.25S215,76.71,215,86.32,212.12,99.57,207.76,99.57Zm0-24.15c-2.5,0-4.5,2.14-4.5,10.89s2,10.9,4.5,10.9,4.5-2.14,4.5-10.9S210.26,75.43,207.76,75.43Z" transform="translate(-8.13 -6.96)"/><path class="cls-1" d="M229.83,81.21c-.36-4.07-1.64-5.79-3.82-5.79-3.25,0-4.68,2.86-4.68,10.89s1.43,10.9,4.68,10.9c2.61,0,4.11-1.79,4.18-6.57H233c-.07,5.72-2.57,8.93-7,8.93-4.61,0-7.47-3.5-7.47-13.25S221.4,73.07,226,73.07c3.82,0,6.18,2.64,6.61,8.14Z" transform="translate(-8.13 -6.96)"/><path class="cls-1" d="M240.33,73.43V99.21h-2.79V73.43Z" transform="translate(-8.13 -6.96)"/><path class="cls-1" d="M253,73.43l5.68,25.79h-2.79l-1.54-7.64h-6.57l-1.54,7.64h-2.79l5.68-25.79Zm-4.82,15.79h5.79l-2.86-13.86H251Z" transform="translate(-8.13 -6.96)"/><path class="cls-1" d="M271.47,73.43v2.36h-5.29V99.21H263.4V75.78h-5.29V73.43Z" transform="translate(-8.13 -6.96)"/><path class="cls-1" d="M286.11,73.43v2.36h-9v8.79h6.64v2.36h-6.64v9.93h9.43v2.36H274.33V73.43Z" transform="translate(-8.13 -6.96)"/><path class="cls-1" d="M299.61,80.07c-.21-2.64-1.29-4.64-4-4.64a3.3,3.3,0,0,0-3.54,3.39c0,5.82,10.36,5.89,10.36,14.18,0,4.11-2.36,6.57-6.61,6.57-4,0-6.46-3-6.54-7.29h2.57c.07,3,1.5,4.93,4.25,4.93,2.32,0,3.82-1.5,3.82-4.25,0-5.86-10.36-6.54-10.36-13.9,0-3.64,2.5-6,6.22-6s6.14,2.5,6.36,7Z" transform="translate(-8.13 -6.96)"/><path class="cls-1" d="M304.27,74h-.68v-.61h2.07V74H305v3.5h-.71Z" transform="translate(-8.13 -6.96)"/><path class="cls-1" d="M308.9,73.41v4.11h-.62V74.31h0l-.64,3.22h-.34l-.64-3.22h0v3.22H306V73.41H307l.5,2.41h0l.5-2.41Z" transform="translate(-8.13 -6.96)"/><path class="cls-1" d="M17.32,61a95.17,95.17,0,0,0-9.2-18.77V65.74H19Q18.18,63.34,17.32,61Z" transform="translate(-8.13 -6.96)"/><path class="cls-1" d="M46.16,54.94H63.09A115.63,115.63,0,0,0,24.25,33.5,90.58,90.58,0,0,1,46.16,54.94Z" transform="translate(-8.13 -6.96)"/><path class="cls-1" d="M8.13,7V23.69A121.36,121.36,0,0,1,71.84,54.93h48.82v63.94H24.74V54.94H38.83C30,44.07,19.57,36,8.13,31.6v1C13.59,38.86,18.54,47.73,22.76,59c.36,1,.72,2,1.07,3V83.18c-.91-4-1.92-7.9-3-11.63H8.13V97.76h15.7v5.81H8.13v26.77H29.92c-.16-3.57-.39-7.1-.67-10.59h5.82c.27,3.49.5,7,.66,10.59h31q-.44-5.37-1.21-10.59h5.88q.74,5.23,1.17,10.59h31.69q-.65-5.35-1.78-10.59h5.93q1.07,5.23,1.69,10.58h21.47V7ZM83.71,46.58H78.79V17.93h4.92ZM102.4,27.5H97.48V25.27c0-2.42-1.11-3.45-2.38-3.45-2,0-2.62,1-2.62,3.17V39.52c0,2.14.64,3.17,2.62,3.17,1.79,0,2.38-1,2.38-2.9V36.35h4.92v3.29c0,4-2.38,7.34-7.3,7.34-5.16,0-7.54-3.29-7.54-7.34V24.88c0-4,2.38-7.34,7.54-7.34,4.92,0,7.3,3.57,7.3,7.86Zm18.25,0h-4.92V25.27c0-2.42-1.11-3.45-2.38-3.45-2,0-2.62,1-2.62,3.17V39.52c0,2.14.64,3.17,2.62,3.17,1.79,0,2.38-1,2.38-2.9V36.35h4.92v3.29c0,4-2.38,7.34-7.3,7.34-5.16,0-7.54-3.29-7.54-7.34V24.88c0-4,2.38-7.34,7.54-7.34,4.92,0,7.3,3.57,7.3,7.86Z" transform="translate(-8.13 -6.96)"/><path class="cls-1" d="M109.46,69l-.86,8.84h1.62L109.54,69Z" transform="translate(-8.13 -6.96)"/><path class="cls-1" d="M36.87,55.84v51.22h82.88V55.84ZM77.51,82.41A4.09,4.09,0,0,1,74.64,86a6.35,6.35,0,0,1-4.93-.12,4.06,4.06,0,0,1-2.61-3.33c-.18-1.52-.25-3.05-.37-4.64h4.57c0,.26,0,.51,0,.75,0,1,0,2,.07,3,0,.59.27.89.7.92s.79-.21.9-.79a6.08,6.08,0,0,0-.17-3.24,2.79,2.79,0,0,0-.81-1c-.9-.8-1.8-1.59-2.75-2.31A6.09,6.09,0,0,1,66.73,70a23.23,23.23,0,0,1,.19-3.35,4.18,4.18,0,0,1,3.74-3.54,7.5,7.5,0,0,1,3.72.32,3.85,3.85,0,0,1,2.76,3.64c.05,1,.09,2.09.14,3.18h-4.5c0-.56,0-1.12,0-1.68a5.18,5.18,0,0,0-.1-1.19.8.8,0,0,0-.49-.52,1.06,1.06,0,0,0-.7.31,1,1,0,0,0-.21.57,3.49,3.49,0,0,0,1.54,3.88A29,29,0,0,1,75.65,74a5.39,5.39,0,0,1,1.81,3.46A19.59,19.59,0,0,1,77.51,82.41Zm13,3.5H86.24c-.27,0-.37-.07-.43-.36-.57-2.87-1.16-5.73-1.75-8.6a.18.18,0,0,0-.11-.15v9.06H79.17V63.5h4.78v8.26H84l.7-2.83.22-.89c.35-1.42.7-2.84,1.06-4.25,0-.13.2-.31.31-.31,1.39,0,2.78,0,4.26,0l-.79,2.92c-.62,2.29-1.25,4.59-1.86,6.88a1.46,1.46,0,0,0,0,.69q1.4,5.79,2.83,11.57c0,.1,0,.2.06.33A2.65,2.65,0,0,1,90.5,85.91Zm5.83-5.13a7.36,7.36,0,0,0,.15,1.27.58.58,0,0,0,.59.51.64.64,0,0,0,.7-.44,3.23,3.23,0,0,0,.19-.95c0-1.27,0-2.54,0-3.86l-.92,0V73.89h5.58v12h-2.16c-.83,0-.83,0-1.06-.82-.06-.21-.12-.42-.2-.69-.08.1-.14.17-.19.25a4.07,4.07,0,0,1-.52.68l-.14.14a3.36,3.36,0,0,1-.54.43l-.07.05a3.06,3.06,0,0,1-1.55.43A3.73,3.73,0,0,1,94.55,86a5,5,0,0,1-2.84-4,22.79,22.79,0,0,1-.19-3.14c0-.12,0-.25,0-.37,0-2.84,0-5.68,0-8.51A21.84,21.84,0,0,1,91.79,67a5,5,0,0,1,4.11-3.94,6.5,6.5,0,0,1,3.28.3,4.85,4.85,0,0,1,3.19,3.68,22.73,22.73,0,0,1,.3,4.62H97.86c0-.2,0-.4,0-.6,0-1,0-2,0-3a4.24,4.24,0,0,0-.09-.7.6.6,0,0,0-.6-.54.58.58,0,0,0-.67.51,7.19,7.19,0,0,0-.13,1.23Q96.32,74.67,96.34,80.78Zm14.3,5.11-.27-4h-1.69l-.29,4h-5c.1-.94.2-1.87.3-2.79q.39-3.55.77-7.1.47-4.28.94-8.55c.13-1.19.27-2.38.38-3.57,0-.3.12-.4.43-.4q3.09,0,6.17,0c.28,0,.41,0,.44.37q.87,7.29,1.78,14.57c.28,2.29.57,4.58.86,6.87,0,.19,0,.38,0,.61Z" transform="translate(-8.13 -6.96)"/></svg>
